<?xml version="1.0" encoding="UTF-8"?>
<svg width="220px" height="103px" viewBox="0 0 220 103" version="1.1" xmlns="http://www.w3.org/2000/svg" xmlns:xlink="http://www.w3.org/1999/xlink">
    <!-- Generator: Sketch 60.1 (88133) - https://sketch.com -->
    <title>百富东方</title>
    <desc>Created with Sketch.</desc>
    <g id="Page-1" stroke="none" stroke-width="1" fill="none" fill-rule="evenodd">
        <g id="百富东方">
            <path d="M4,97.45 L7.4,97.45 C7.4,99.63 7.4,101 7.35,101.58 L7.35,102.43 L8.1,102.37 C8.24,102.37 8.48,102.37 8.83,102.43 L8.74,100.94 L8.74,97.45 L12,97.45 C12,97.76 12,98.06 12,98.37 L12.34,98.37 C12.5164569,98.3578254 12.6935431,98.3578254 12.87,98.37 C12.9257525,98.3556048 12.9842475,98.3556048 13.04,98.37 L13.47,98.37 C13.41,97.54 13.38,97.01 13.37,96.81 L13.37,92.39 C13.37,92.17 13.37,91.93 13.44,91.68 L12.44,91.75 L8.68,91.75 C8.68,90.69 8.68,89.96 8.73,89.56 C8.71690476,89.3335225 8.71690476,89.1064775 8.73,88.88 C8.42,88.88 8.17,88.94 7.99,88.95 C7.74212369,88.9419828 7.49498291,88.9186046 7.25,88.88 C7.25,90.4 7.34,91.24 7.35,91.42 L7.35,91.75 C4.97,91.75 3.55,91.75 3.11,91.75 L2.6,91.75 C2.66,92.31 2.69,92.75 2.69,93 L2.69,98.15 L2.64,98.55 C2.95,98.55 3.18,98.55 3.33,98.55 C3.48,98.55 3.7,98.55 4,98.55 C4,98.43 4,98.09 4,97.55 L4,97.45 Z M4,96.33 L4,92.93 L7.4,92.93 L7.4,96.33 L4,96.33 Z M8.7,96.33 L8.7,92.93 L12,92.93 L12,96.33 L8.7,96.33 Z" id="Shape" fill="#FFFFFF"></path>
            <path d="M30.76,99.07 C31.12,99.07 31.57,99.07 32.11,99.15 C32.11,98.92 32.11,98.72 32.11,98.56 C32.11,98.4 32.11,98.23 32.11,97.92 C31.8588336,97.9284483 31.6083917,97.9518228 31.36,97.99 C31.1444555,98.0189671 30.9274389,98.0356607 30.71,98.04 L30.48,98.04 C30.618817,97.9463808 30.7661326,97.8660268 30.92,97.8 C31.0917147,97.7152637 31.2687544,97.6417755 31.45,97.58 L30.32,95.81 C29.9889272,96.0280641 29.633095,96.2059802 29.26,96.34 L29.58,96.77 C29.8634471,97.1459392 30.0923749,97.5600291 30.26,98 L28.77,98 L28.77,95.62 L30,95.62 C30.34,95.62 30.78,95.62 31.33,95.69 C31.3412228,95.4968295 31.3412228,95.3031705 31.33,95.11 C31.33,95.01 31.33,94.82 31.33,94.51 C30.6,94.57 30.08,94.59 29.75,94.59 L28.75,94.59 L28.75,93 L30.06,93 C30.48,93 31.06,93 31.72,93.09 C31.72,92.75 31.66,92.55 31.65,92.47 C31.6422221,92.350126 31.6422221,92.229874 31.65,92.11 C31.65,92.11 31.65,92 31.65,91.86 L30.57,91.94 L26.05,91.94 L25.05,91.86 C25.05,92.17 25.1,92.37 25.11,92.49 C25.1011913,92.6942791 25.0811611,92.8979195 25.05,93.1 L26.8,93 L27.6,93 L27.6,94.61 C26.6,94.61 26.04,94.61 25.85,94.61 L25.27,94.55 C25.280749,94.7431839 25.280749,94.9368161 25.27,95.13 C25.2811819,95.3298437 25.2811819,95.5301563 25.27,95.73 C25.94,95.73 26.45,95.65 26.81,95.65 L27.6,95.65 L27.6,98 C26.05,98 25.17,98 24.95,98 C24.8054671,97.9898194 24.6617991,97.9697727 24.52,97.94 C24.52,98.22 24.52,98.44 24.57,98.58 C24.564281,98.7807618 24.5475894,98.9810607 24.52,99.18 C25.1,99.18 25.57,99.1 25.94,99.09 L30.76,99.07 Z M24.05,101.23 L32.76,101.23 C32.76,101.68 32.76,102.07 32.76,102.41 L33.46,102.41 L34.1,102.41 L34,101 L34,100.15 L34,92 L34,91.1 L34.08,89.71 C33.52,89.71 33.01,89.8 32.55,89.81 C26.69,89.81 23.6266667,89.81 23.36,89.81 L22.79,89.81 C22.79,91.04 22.88,91.81 22.88,92.1 L22.88,100.88 L22.8,102.35 C23.06,102.35 23.28,102.35 23.45,102.35 C23.62,102.35 23.84,102.35 24.12,102.35 C24.12,102.12 24.12,101.8 24.12,101.35 L24.05,101.23 Z M24.05,100.17 L24.05,90.86 L32.76,90.86 L32.76,100.17 L24.05,100.17 Z" id="Shape" fill="#FFFFFF"></path>
            <path d="M42.16,93.52 C42.5871327,93.721736 42.9761905,93.9957681 43.31,94.33 C43.37499,94.2276572 43.4522277,94.1336288 43.54,94.05 L44.54,92.88 C44.7346065,92.6632487 44.9086857,92.4289113 45.06,92.18 C45.2738566,91.8334484 45.5075803,91.4995574 45.76,91.18 C46.3958414,91.6035366 46.9682358,92.1153245 47.46,92.7 L47.85,93.2 C47.9540194,93.0440118 48.0747323,92.8998269 48.21,92.77 L48.81,92.24 L46.31,90.24 C46.48,89.98 46.65,89.68 46.83,89.34 C46.3871884,89.2137117 45.9583272,89.0428373 45.55,88.83 C45.46,89.01 45.39,89.19 45.32,89.37 C45.0482994,90.1114765 44.6747151,90.8115264 44.21,91.45 C43.7663395,92.1092517 43.2309524,92.7018814 42.62,93.21 C42.4743274,93.3045966 42.3371454,93.4116655 42.21,93.53 L42.16,93.52 Z M46.6,96.21 L46.07,97.38 C45.92,97.72 45.71,98.13 45.43,98.64 L44.31,97.35 C44.0412083,97.5744732 43.7534646,97.7752246 43.45,97.95 L43.29,98.04 L43.77,98.51 C44.28,99.08 44.69,99.51 45.01,99.95 C45.2803929,100.311458 45.5180013,100.696316 45.72,101.1 L45.93,101.51 C46.1012251,101.359123 46.289107,101.228277 46.49,101.12 L47.1,100.75 L46.1,99.5 C46.52,98.79 46.89,98.13 47.19,97.5 C47.49,96.87 47.88,96.03 48.32,95.04 C47.76,95.04 47.26,95.1 46.81,95.11 L44.34,95.11 C43.89,95.11 43.34,95.11 42.79,95.04 L42.85,95.66 C42.85,95.74 42.85,95.94 42.79,96.27 L44.34,96.2 L46.6,96.21 Z M45.09,93.35 C45.2222028,93.6286862 45.3131554,93.9251244 45.36,94.23 C45.3515411,94.3598624 45.3515411,94.4901376 45.36,94.62 C45.7843768,94.5074558 46.2151602,94.4206313 46.65,94.36 L46,92.57 L45.52,92.74 L44.85,92.83 C44.9,93 44.97,93.17 45.04,93.35 L45.09,93.35 Z M47,101.19 C47.4397751,101.514461 47.81891,101.913906 48.12,102.37 C48.1907756,102.339282 48.2644868,102.315829 48.34,102.3 C48.59,102.19 48.89,102.04 49.25,101.86 C49.5212161,101.726534 49.7819585,101.572762 50.03,101.4 C50.8658796,100.86794 51.5104085,100.083296 51.87,99.16 C51.9585298,98.874056 52.0319645,98.5836552 52.09,98.29 C52.09,98.01 52.15,97.65 52.19,97.21 C52.25,95.79 52.29,94.89 52.34,94.52 L52,94.52 C51.6861497,94.5111523 51.3742463,94.4675529 51.07,94.39 L51.07,96.12 C51.07,96.2933333 51.07,96.5033333 51.07,96.75 C51.0803906,97.2177432 51.0569964,97.6856262 51,98.15 C50.9071913,98.8200447 50.5814922,99.4360408 50.08,99.89 C49.4063556,100.469744 48.5866335,100.853665 47.71,101 L47,101.17 L47,101.19 Z M51.26,91 L51,92.54 L50.09,92.54 C49.65,92.54 49.09,92.54 48.57,92.47 C48.57,93.07 48.63,93.61 48.64,94.09 C48.64,96.6 48.64,98.09 48.64,98.71 C48.64,98.8033333 48.64,98.9033333 48.64,99.01 L49.27,98.95 L49.9,99.01 L49.84,97.94 L49.84,93.66 L53.71,93.66 L53.71,97.17 C53.71,97.67 53.71,98.25 53.64,98.89 L54.3,98.83 C54.5243425,98.8364102 54.7480882,98.8564471 54.97,98.89 C54.97,98.25 54.97,97.68 54.9,97.19 L54.9,94.08 C54.9,93.62 54.9,93.08 54.97,92.47 C54.41,92.47 53.89,92.53 53.42,92.54 L52.12,92.54 L52.4,91 L53.9,91 C54.41,91 54.96,91 55.56,91.07 C55.56,90.79 55.56,90.57 55.56,90.42 C55.56,90.27 55.56,90.09 55.56,89.77 C54.97,89.77 54.42,89.84 53.9,89.84 L49.79,89.84 C49.32,89.84 48.79,89.84 48.13,89.77 C48.1644962,89.9853187 48.1878606,90.2022737 48.2,90.42 C48.1939631,90.6381817 48.1705557,90.8555358 48.13,91.07 L49.79,91 L51.26,91 Z M52.65,100.38 C53.1929205,100.745855 53.6927585,101.171892 54.14,101.65 L54.52,102.07 L55.01,101.58 L55.59,101.1 L52.87,99.1 C52.7723707,99.2518354 52.6546348,99.3897546 52.52,99.51 C52.3508915,99.6655393 52.1739973,99.8123949 51.99,99.95 L52.65,100.38 Z" id="Shape" fill="#FFFFFF"></path>
            <path d="M62.74,101 C63.0525295,101.191273 63.3355051,101.427086 63.58,101.7 C63.7621046,101.931953 63.8979038,102.196761 63.98,102.48 C64.2190844,102.336095 64.4661489,102.205886 64.72,102.09 C65.0674185,101.937401 65.4018537,101.756806 65.72,101.55 C65.9565634,101.390006 66.183614,101.216379 66.4,101.03 C66.9673947,100.548987 67.4157612,99.9431791 67.71,99.26 C67.8033333,99.0133333 67.8833333,98.7633333 67.95,98.51 C68.0139608,98.1793174 68.0606905,97.8455338 68.09,97.51 L68.2,96 L70.13,96 L70.13,100.24 C70.1260768,100.539175 70.1734281,100.836812 70.27,101.12 C70.3642019,101.412151 70.6023057,101.635137 70.9,101.71 C71.2599603,101.799362 71.6291313,101.846347 72,101.85 C73.06,101.85 73.72,101.85 74,101.85 L74.6,101.69 C74.7435028,101.618433 74.8806631,101.534799 75.01,101.44 C75.1,101.33 75.23,101.14 75.4,100.89 C75.57,100.64 75.74,100.19 75.97,99.66 C75.6955896,99.6301596 75.4353975,99.5226136 75.22,99.35 C74.9516078,99.109113 74.7251807,98.8252342 74.55,98.51 C74.4859384,98.9770838 74.3856358,99.4384759 74.25,99.89 C74.2023881,100.091582 74.0983258,100.275426 73.95,100.42 C73.8010614,100.498517 73.6377958,100.546136 73.47,100.56 L72.27,100.56 C72.0123193,100.587556 71.751782,100.553275 71.51,100.46 C71.4433333,100.4 71.4033333,100.2 71.39,99.86 L71.39,96 L75.44,96.1 C75.44,95.81 75.39,95.6 75.38,95.46 C75.3872201,95.235706 75.4072528,95.012008 75.44,94.79 L71.59,94.89 L70.13,94.89 L70.13,92.42 C71.89,92.42 73.05,92.42 73.62,92.42 L74.19,92.42 C74.19,92.07 74.19,91.85 74.13,91.75 C74.07,91.65 74.13,91.43 74.19,91.08 L72.64,91.15 L70.13,91.15 L70.13,90.5 C70.13,90.08 70.13,89.5 70.2,88.86 C69.89,88.86 69.67,88.86 69.52,88.86 C69.37,88.86 69.14,88.86 68.82,88.86 C68.82,89.51 68.88,90.06 68.89,90.53 L68.89,91.14 L66.69,91.14 L67.15,90 C66.6558508,89.928757 66.1700886,89.808154 65.7,89.64 L65.57,90.33 C65.4559933,91.0387082 65.2648581,91.7328306 65,92.4 C64.8095025,92.953268 64.5216422,93.4680301 64.15,93.92 C64.04,94.03 63.94,94.16 63.84,94.28 C64.1485208,94.3152759 64.4531394,94.3788776 64.75,94.47 C64.977979,94.5303948 65.1942825,94.6284073 65.39,94.76 L66.3,92.42 L68.92,92.42 L68.92,94.86 L64.92,94.86 L63.25,94.79 C63.25,95.1 63.25,95.32 63.31,95.46 C63.3016054,95.6742625 63.2815759,95.8879107 63.25,96.1 L66.92,96 C66.9052145,96.5460002 66.8551098,97.0904713 66.77,97.63 C66.7129037,97.9693494 66.6293147,98.3037052 66.52,98.63 C66.2459857,99.3730814 65.7037395,99.9866758 65,100.35 C64.82,100.44 64.57,100.55 64.26,100.67 C64.0121647,100.756039 63.7580831,100.822903 63.5,100.87 L62.74,101 Z" id="Path" fill="#FFFFFF"></path>
            <path d="M83.18,101.52 C83.7303443,101.667384 84.2354653,101.949152 84.65,102.34 C84.74,102.18 84.83,102.02 84.93,101.86 C85.0903689,101.614851 85.2372536,101.361141 85.37,101.1 C85.45,100.96 85.54,100.79 85.63,100.59 C85.8528739,100.076538 86.030222,99.5444939 86.16,99 C86.2500953,98.5537837 86.3168526,98.1031715 86.36,97.65 C86.36,97.37 86.36,97.04 86.36,96.65 L86.36,95.22 C91.91,95.22 94.79,95.22 94.98,95.22 C95.2676222,95.2224377 95.5548257,95.2424752 95.84,95.28 C95.8552384,95.0736142 95.8552384,94.8663858 95.84,94.66 C95.84,94.55 95.84,94.35 95.84,94.06 C95.37,94.06 94.95,94.12 94.59,94.13 L92.29,94.13 L93.05,93 C93.1701702,92.7787168 93.3037526,92.564985 93.45,92.36 C93.0148631,92.2578564 92.6016271,92.0783358 92.23,91.83 C93.56,91.83 94.49,91.83 95,91.83 C95.2231422,91.8169318 95.4468578,91.8169318 95.67,91.83 C95.67,91.52 95.67,91.31 95.67,91.2 C95.67,91.09 95.67,91.04 95.67,90.88 C95.67,90.72 95.67,90.75 95.67,90.57 L94.32,90.64 L90.67,90.64 C90.9523837,90.548132 91.2394563,90.4713568 91.53,90.41 L90.38,88.57 C89.9662596,88.82513 89.5184832,89.0204009 89.05,89.15 C89.33,89.49 89.56,89.8 89.75,90.07 C89.94,90.34 89.92,90.44 90.02,90.64 L85.69,90.64 L84.84,90.58 C84.84,90.87 84.84,91.08 84.84,91.21 C84.84,91.34 84.84,91.56 84.84,91.84 C85.84,91.78 86.5,91.75 86.84,91.75 L92.13,91.75 C92.06,91.95 92,92.15 91.93,92.35 C91.7267676,92.965202 91.476012,93.5636721 91.18,94.14 L88.69,94.14 C88.918872,94.0307052 89.1563376,93.9404014 89.4,93.87 L88,91.9 C87.6299406,92.1309865 87.2245885,92.2998832 86.8,92.4 L87.16,92.81 C87.4279561,93.1050433 87.6443146,93.4431034 87.8,93.81 C87.8444293,93.9337627 87.8979071,94.0540878 87.96,94.17 L86.54,94.17 C86.15,94.17 85.68,94.17 85.14,94.1 C85.2,95.05 85.23,95.62 85.23,95.83 C85.23,96.52 85.23,97.11 85.16,97.6 C85.16,97.8533333 85.09,98.2633333 84.95,98.83 C84.7097961,99.6460055 84.2738162,100.390947 83.68,101 C83.5026138,101.162697 83.3356186,101.336372 83.18,101.52 L83.18,101.52 Z" id="Path" fill="#FFFFFF"></path>
            <path d="M104.59,99.85 C106.65,99.18 107.75,98.85 107.87,98.85 L107.87,98.43 C107.880044,98.1491357 107.923688,97.8704849 108,97.6 C107.674092,97.7425413 107.340199,97.8660816 107,97.97 C106.877165,98.0009315 106.756827,98.0410443 106.64,98.09 L106.64,94.09 L107.1,94.09 C107.394582,94.0933333 107.688595,94.1167208 107.98,94.16 C107.98,93.96 107.98,93.74 107.91,93.49 C107.919646,93.2985683 107.94304,93.1080774 107.98,92.92 L107.1,92.99 L106.64,92.99 L106.64,91.29 C106.64,90.79 106.64,90.17 106.72,89.45 L106.05,89.45 C105.91,89.45 105.7,89.45 105.4,89.45 C105.46,90.15 105.48,90.77 105.48,91.3 L105.48,93 L104.81,93 C104.53553,92.9927685 104.261724,92.9693948 103.99,92.93 C104.002123,93.1331526 104.002123,93.3368474 103.99,93.54 C104.001355,93.7498465 104.001355,93.9601535 103.99,94.17 C104.3,94.17 104.57,94.11 104.81,94.1 L105.48,94.1 L105.48,98.41 L104.92,98.53 C104.498632,98.6230234 104.070681,98.6832041 103.64,98.71 C103.844218,99.1557484 103.988797,99.6264684 104.07,100.11 L104.59,99.9 L104.59,99.85 Z M106.08,101.44 L106.9,101.8 C107.099013,101.914266 107.283656,102.051909 107.45,102.21 C107.53,102.08 107.62,101.97 107.7,101.86 C107.9,101.58 108.07,101.33 108.2,101.13 C108.33,100.93 108.45,100.69 108.61,100.39 C108.77,100.09 108.99,99.46 109.22,98.77 C109.523952,99.1972721 109.750712,99.6744833 109.89,100.18 C110.316698,100.1173 110.733491,99.9996572 111.13,99.83 C111.442418,99.7174295 111.671106,99.4468153 111.73,99.12 L111.86,95.36 C111.86,95.1266667 111.88,94.7933333 111.92,94.36 L110.77,94.43 L109.62,94.43 L109.62,92.71 L112.46,92.71 L112.57,94.71 L112.75,96.28 C112.891498,97.2652745 113.108809,98.2381621 113.4,99.19 C113.150266,99.4888579 112.879582,99.7695668 112.59,100.03 C112.016658,100.499783 111.400644,100.914923 110.75,101.27 L110.42,101.44 C110.864663,101.697366 111.277501,102.006155 111.65,102.36 C111.720791,102.292849 111.797804,102.232578 111.88,102.18 C112.624685,101.6126 113.320458,100.983728 113.96,100.3 C114.220635,100.704689 114.511462,101.089116 114.83,101.45 C115.296667,101.983333 115.696667,102.253333 116.03,102.26 C116.16564,102.252947 116.293873,102.195955 116.39,102.1 C116.549768,101.924716 116.681337,101.725676 116.78,101.51 C116.9,101.23 117,101.02 117.07,100.87 C117.14,100.72 117.24,100.46 117.41,100.07 C116.968189,99.8644598 116.565515,99.5836035 116.22,99.24 C116.218471,99.3951812 116.198327,99.5496184 116.16,99.7 C116.169915,99.7863831 116.169915,99.8736169 116.16,99.96 C116.07,100.42 115.96,100.65 115.85,100.66 C115.74,100.67 115.71,100.54 115.5,100.31 C115.385585,100.185636 115.281883,100.051826 115.19,99.91 C115.08,99.74 114.93,99.52 114.78,99.25 C115.318486,98.0606434 115.727505,96.8168254 116,95.54 C116,95.28 116.18,94.83 116.36,94.2 C115.886395,94.1454642 115.427899,93.9994247 115.01,93.77 C114.980228,93.9487795 114.960198,94.1290456 114.95,94.31 C114.942252,94.5351879 114.91549,94.7593185 114.87,94.98 C114.830423,95.276378 114.773661,95.5702064 114.7,95.86 C114.565791,96.5402541 114.378553,97.2089622 114.14,97.86 C113.954508,97.0565122 113.824204,96.2412755 113.75,95.42 C113.645983,94.5037322 113.595897,93.5821439 113.6,92.66 L115,92.66 C115.55,92.66 116.17,92.66 116.84,92.74 C116.804658,92.5115926 116.784614,92.2810794 116.78,92.05 L116.84,91.45 C116.21,91.45 115.6,91.53 115,91.53 L113.6,91.53 C113.6,90.72 113.6,90.19 113.6,89.94 C113.588886,89.8670877 113.588886,89.7929123 113.6,89.72 L113.6,89.15 L113.37,89.15 C112.965195,89.1427633 112.562559,89.0890785 112.17,88.99 C112.17,89.3 112.17,89.61 112.17,89.93 L112.23,91.53 L109.45,91.53 C109.032425,91.5275939 108.615233,91.5042312 108.2,91.46 C108.2,92.91 108.28,93.97 108.28,94.64 C108.28,94.93 108.28,95.23 108.28,95.56 C108.283962,96.1252439 108.2472,96.6900389 108.17,97.25 C108.082278,98.0686751 107.866304,98.8684525 107.53,99.62 C107.229509,100.20058 106.81047,100.711603 106.3,101.12 L105.94,101.39 L106.08,101.44 Z M110.75,95.51 L110.67,98.01 C110.664044,98.1951291 110.640607,98.379281 110.6,98.56 C110.54,98.73 110.36,98.82 110.04,98.83 C109.77265,98.8235895 109.507195,98.7832672 109.25,98.71 C109.421389,97.6505594 109.531572,96.5821209 109.58,95.51 L110.75,95.51 Z M114.6,90.28 C114.83,90.74 114.95,91 114.98,91.08 C115.01,91.16 115.04,91.31 115.08,91.43 C115.475297,91.1862422 115.890038,90.9755269 116.32,90.8 L115.49,89.28 C115.130978,89.5155451 114.744856,89.7069272 114.34,89.85 L114.6,90.28 Z" id="Shape" fill="#FFFFFF"></path>
            <path d="M126.13,91.12 L129.29,91.12 C129.77,91.12 130.29,91.12 130.91,91.19 C130.900035,90.9967951 130.900035,90.8032049 130.91,90.61 C130.895965,90.4169214 130.895965,90.2230786 130.91,90.03 C130.3,90.03 129.76,90.09 129.29,90.1 L126.1,90.1 C125.64,90.1 125.1,90.1 124.5,90.03 C124.5,90.34 124.5,90.53 124.5,90.62 C124.5,90.71 124.5,90.92 124.5,91.19 L125.31,91.12 L126.13,91.12 Z M125.75,96.77 L129.5,96.77 L129.5,100.5 C129.50537,100.644616 129.467037,100.787494 129.39,100.91 C129.304482,101.002114 129.185632,101.056137 129.06,101.06 C128.845128,101.047564 128.631322,101.020838 128.42,100.98 C128.656669,101.364899 128.781337,101.808162 128.78,102.26 C129.308732,102.219553 129.826423,102.087592 130.31,101.87 C130.486948,101.690181 130.574876,101.441051 130.55,101.19 L130.55,96.79 C130.551879,96.4322532 130.575255,96.0749425 130.62,95.72 C130.11,95.72 129.62,95.78 129.21,95.79 L126,95.79 C125.64,95.79 125.2,95.79 124.69,95.72 C124.69,96.42 124.75,96.87 124.76,97.07 L124.76,101.24 L124.7,102.24 L125.27,102.18 C125.470984,102.188488 125.671315,102.208521 125.87,102.24 C125.87,101.6 125.87,101.02 125.8,100.51 L125.8,96.77 L125.75,96.77 Z M125.2,94 C125.192715,94.3711422 125.166012,94.7416489 125.12,95.11 L126.44,95.04 L128.83,95.04 C129.21,95.04 129.63,95.04 130.1,95.11 C130.1,94.7 130.04,94.34 130.03,94.04 L130.03,92.85 C130.036785,92.5456203 130.060153,92.2418365 130.1,91.94 C129.675775,91.9981027 129.248181,92.028168 128.82,92.03 L126.5,92.03 C126.038668,92.0261168 125.577928,91.9960685 125.12,91.94 C125.12,92.29 125.19,92.58 125.2,92.82 L125.2,94 Z M126.27,94.15 L126.27,93 L128.93,93 C128.93,93.39 128.93,93.78 128.93,94.18 L126.27,94.15 Z M127.12,99.56 L127.12,100.34 C127.118193,100.73764 127.094825,101.13489 127.05,101.53 C127.216529,101.539564 127.383471,101.539564 127.55,101.53 L128.08,101.53 L128.02,100.94 C128.026224,100.880161 128.026224,100.819839 128.02,100.76 L128.02,99.56 L128.38,99.56 C128.658031,99.5624722 128.935482,99.5858717 129.21,99.63 C129.201425,99.4667792 129.201425,99.3032208 129.21,99.14 C129.21,99.09 129.21,98.93 129.21,98.68 C128.87,98.68 128.56,98.74 128.27,98.75 C128.334713,98.6133108 128.411695,98.4827756 128.5,98.36 C128.618821,98.0150962 128.76599,97.6806207 128.94,97.36 C128.589683,97.2886148 128.252414,97.1638254 127.94,96.99 C127.94,97.07 127.94,97.16 127.94,97.27 C127.94,97.38 127.8,97.96 127.61,98.74 L126.76,98.74 C126.51851,98.7360263 126.277733,98.7126173 126.04,98.67 C126.04,98.92 126.04,99.08 126.04,99.13 C126.04,99.18 126.04,99.36 126.04,99.62 C126.3,99.62 126.51,99.56 126.7,99.55 L127.12,99.56 Z M126.24,97.51 C126.363383,97.7790713 126.457263,98.0607133 126.52,98.35 C126.533293,98.4217449 126.553383,98.492062 126.58,98.56 C126.858934,98.4092901 127.15896,98.3014155 127.47,98.24 L127,97 L126.44,97.24 C126.327581,97.2499469 126.216776,97.2734508 126.11,97.31 C126.139675,97.367817 126.176643,97.4215891 126.22,97.47 L126.24,97.51 Z M130.73,100.51 C130.81,100.73 130.87,100.91 130.91,101.05 C130.91,101.22 131,101.51 131.06,101.93 C131.18,101.93 131.69,101.77 132.61,101.58 L135.94,100.94 C136.01,101.19 136.06,101.4 136.11,101.57 C136.16,101.74 136.17,101.93 136.2,102.17 C136.571153,101.931966 136.980438,101.759458 137.41,101.66 L136.15,98.16 C135.845193,98.3579115 135.506011,98.4969761 135.15,98.57 C135.372675,99.0017334 135.5535,99.4537963 135.69,99.92 C135.280858,100.015261 134.866941,100.088698 134.45,100.14 L134.45,97.14 C135.45,97.14 136.1,97.14 136.28,97.14 L136.65,97.14 C136.65,96.68 136.6,96.28 136.58,95.94 L136.58,93.14 C136.58,92.8 136.58,92.39 136.65,91.93 C136.249062,91.9852045 135.844716,92.0119381 135.44,92.01 L134.44,92.01 C134.44,90.87 134.44,90.21 134.44,90.01 C134.441352,89.7754423 134.461416,89.5413664 134.5,89.31 L133.87,89.37 L133.22,89.31 L133.3,90.5 L133.3,92 C132.35,92 131.73,92 131.42,92 L131.07,92 C131.07,92.44 131.13,92.83 131.14,93.14 L131.14,96.52 C131.14,96.96 131.14,97.52 131.07,98.13 C131.32,98.13 131.52,98.13 131.67,98.13 C131.82,98.13 132.04,98.13 132.28,98.13 C132.28,97.96 132.28,97.65 132.28,97.23 L133.28,97.23 L133.28,100.31 L132,100.46 L131.12,100.53 L130.69,100.53 L130.73,100.51 Z M132.28,96.16 L132.28,93 L133.28,93 L133.28,96.09 L132.28,96.16 Z M134.41,96.16 L134.41,93 L135.47,93 L135.47,96.12 L134.41,96.16 Z" id="Shape" fill="#FFFFFF"></path>
            <path d="M144.67,94.58 C145.168901,94.8234453 145.596142,95.1921123 145.91,95.65 L146.41,95.3 C146.86,94.99 147.2,94.75 147.41,94.55 L147.92,94.15 C147.92,94.45 147.92,94.78 147.92,95.15 L149.17,95.08 L153.56,95.08 L154.73,95.15 C154.73,94.92 154.68,94.73 154.67,94.6 C154.677384,94.4055689 154.697426,94.2118253 154.73,94.02 C155.06,94.25 155.38,94.44 155.68,94.61 C155.98,94.78 156.58,95.09 157.18,95.39 C157.440851,94.8479904 157.796437,94.3569426 158.23,93.94 L157.87,93.87 C157.45,93.76 157.01,93.61 156.55,93.44 C156.134429,93.2886979 155.732897,93.1013164 155.35,92.88 C154.626616,92.4683151 153.955164,91.9714406 153.35,91.4 C152.852454,90.9086691 152.400595,90.3731328 152,89.8 L152.26,89.43 C152.000828,89.3741482 151.74665,89.2972259 151.5,89.2 L150.61,88.81 C150.55,88.97 150.48,89.14 150.42,89.32 C150.335645,89.5381833 150.221204,89.7435034 150.08,89.93 C149.9,90.21 149.7,90.51 149.47,90.81 C149.08962,91.307986 148.675301,91.7791069 148.23,92.22 C147.309865,93.1373277 146.232858,93.8824263 145.05,94.42 C144.92725,94.4588729 144.809711,94.5126047 144.7,94.58 L144.67,94.58 Z M149.59,94.01 L149.05,94.01 C148.755418,94.0066667 148.461405,93.9832792 148.17,93.94 C148.430373,93.7394539 148.677552,93.5223374 148.91,93.29 C149.16,93.05 149.46,92.74 149.81,92.29 C150.33,91.7 150.81,91.12 151.25,90.53 C152.133707,91.8536339 153.264345,92.9944575 154.58,93.89 L153.68,93.96 L149.59,93.96 L149.59,94.01 Z M148.31,101.29 L154.31,101.29 C154.31,101.7 154.31,102.06 154.26,102.36 L154.99,102.3 C155.227532,102.307934 155.464505,102.32796 155.7,102.36 C155.7,101.72 155.64,101.09 155.62,100.49 L155.62,97.81 C155.62,97.53 155.62,97.08 155.69,96.49 C155.15,96.49 154.69,96.55 154.18,96.57 L148.55,96.57 C148.1,96.57 147.55,96.57 147.03,96.49 C147.03,96.97 147.09,97.41 147.1,97.81 L147.1,100.54 C147.1,101.16 147.07,101.79 147.01,102.43 L147.67,102.37 C147.904225,102.377689 148.137883,102.397717 148.37,102.43 C148.37,102.116667 148.37,101.736667 148.37,101.29 L148.31,101.29 Z M148.31,100.23 L148.31,97.62 L154.31,97.62 L154.31,100.23 L148.31,100.23 Z" id="Shape" fill="#FFFFFF"></path>
            <path d="M165.16,101 C165.414984,101.131075 165.653349,101.292223 165.87,101.48 C166.106927,101.695036 166.318318,101.936625 166.5,102.2 C166.684641,101.823644 166.909269,101.468262 167.17,101.14 C167.360259,100.834097 167.674145,100.626057 168.03,100.57 C168.214405,100.591276 168.391904,100.652718 168.55,100.75 C169.11,101.04 169.55,101.27 169.99,101.45 C170.315149,101.580728 170.649361,101.687676 170.99,101.77 C171.837908,101.922577 172.69857,101.992903 173.56,101.98 L178.04,101.98 C178.032793,101.725507 178.070017,101.471706 178.15,101.23 C178.312583,100.881769 178.503211,100.547334 178.72,100.23 L178.41,100.31 C177.752339,100.466858 177.083771,100.573829 176.41,100.63 C175.51,100.69 174.62,100.72 173.74,100.74 C172.839292,100.741442 171.940959,100.647587 171.06,100.46 C170.718659,100.393456 170.383982,100.2964 170.06,100.17 C169.69,100.02 169.2,99.8 168.61,99.5 C168.61,96.37 168.61,94.59 168.61,94.16 C168.600378,94.0034811 168.600378,93.8465189 168.61,93.69 C168.31888,93.7370684 168.024835,93.7637997 167.73,93.77 L166.5,93.77 C166.25,93.77 165.89,93.77 165.4,93.69 C165.453138,93.9096109 165.4833,94.1341512 165.49,94.36 C165.478179,94.5920077 165.448086,94.8227225 165.4,95.05 C165.83,95.05 166.2,94.99 166.52,94.98 L167.24,94.98 L167.24,99.52 C167.072287,99.6032839 166.911741,99.7002804 166.76,99.81 C166.76,99.81 166.17,100.19 165.08,100.96 L165.16,101 Z M166.63,90.21 C166.999281,90.830894 167.269207,91.5057108 167.43,92.21 C167.43,92.33 167.47,92.46 167.55,92.6 L168.24,92.32 C168.41,92.32 168.65,92.19 168.97,92.11 L167.78,89.35 C167.571383,89.4780986 167.354204,89.5916999 167.13,89.69 C166.898066,89.7862086 166.661045,89.8696664 166.42,89.94 L166.63,90.24 L166.63,90.21 Z M172.5,94.32 L172.33,94.76 C172.19,95.12 171.96,95.61 171.65,96.22 C171.42,96.68 171.25,97.02 171.12,97.22 C171.036676,97.3859081 170.932499,97.5404926 170.81,97.68 C170.541898,97.9092981 170.210754,98.052213 169.86,98.09 C170.095377,98.5146822 170.273587,98.9686135 170.39,99.44 C170.580171,99.3604711 170.777822,99.3001707 170.98,99.26 L171.2,99.26 C171.81,99.19 172.32,99.15 172.71,99.12 L173.83,99.04 L175.09,98.94 L176.15,98.81 L176.39,99.33 C176.415657,99.4530918 176.452476,99.5735899 176.5,99.69 C176.944533,99.4011545 177.425386,99.1724971 177.93,99.01 L175.58,95.23 C175.23089,95.4804226 174.855299,95.6916925 174.46,95.86 C174.74,96.26 175.14,96.86 175.66,97.76 L173.43,97.94 L172,98 L172.9,96.34 L173.9,94.34 C175.97,94.34 177.09,94.34 177.26,94.34 C177.43,94.34 177.87,94.34 178.26,94.34 C178.26,94.08 178.26,93.85 178.26,93.63 C178.26,93.41 178.26,93.26 178.26,92.96 L176.12,93.06 L170.57,93.06 L169.32,93 C169.32,93.31 169.32,93.55 169.32,93.71 C169.32,93.87 169.32,94.09 169.32,94.38 L170.68,94.3 L172.5,94.3 L172.5,94.32 Z M176,91.15 C176.4,91.15 176.87,91.15 177.41,91.23 C177.41,90.91 177.41,90.69 177.35,90.56 C177.29,90.43 177.35,90.22 177.41,89.87 C176.83,89.87 176.35,89.95 175.97,89.95 L172.08,89.95 C171.67,89.95 171.15,89.95 170.52,89.87 C170.531745,90.0865075 170.531745,90.3034925 170.52,90.52 C170.52,90.66 170.52,90.9 170.52,91.23 L172.08,91.15 L176,91.15 Z" id="Shape" fill="#FFFFFF"></path>
            <path d="M190,91.4 L190,92.59 L187.65,92.59 C187.221897,92.586148 186.79443,92.5560918 186.37,92.5 C186.37,92.83 186.43,93.13 186.44,93.39 L186.44,94.39 C186.436421,94.6513958 186.41302,94.9121437 186.37,95.17 L187.04,95.11 C187.16,95.11 187.4,95.11 187.74,95.17 C187.74,94.88 187.68,94.63 187.67,94.4 L187.67,93.53 L197.19,93.53 L197.19,94.32 C197.185358,94.6045631 197.161974,94.8885113 197.12,95.17 L197.79,95.11 C197.91,95.11 198.14,95.11 198.49,95.17 C198.49,94.83 198.43,94.52 198.42,94.25 L198.42,93.37 C198.42383,93.0621605 198.447211,92.7548752 198.49,92.45 C198.082242,92.5052779 197.671461,92.5353351 197.26,92.54 L194.89,92.54 L194.89,91.4 C195.84,91.4 197.05,91.4 198.53,91.5 L198.81,91.5 C198.81,91.25 198.81,91.05 198.81,90.91 C198.799337,90.7068065 198.799337,90.5031935 198.81,90.3 L195.14,90.4 L194.89,90.4 L194.89,90.04 C194.89,89.81 194.89,89.48 194.96,89.04 C194.7,89.04 194.5,89.1 194.35,89.11 C194.125244,89.1032542 193.901297,89.0798567 193.68,89.04 C193.68,89.55 193.73,90.04 193.73,90.37 L191.14,90.37 L191.14,90.03 C191.14,89.76 191.14,89.41 191.21,89.03 L190.56,89.03 L189.91,89.03 C189.97383,89.4771044 190.003915,89.9283792 190,90.38 L187,90.32 L186.15,90.32 C186.15,90.57 186.15,90.77 186.15,90.91 C186.15,91.05 186.15,91.22 186.15,91.52 C188.35,91.44 189.65,91.4 190.04,91.41 L190,91.4 Z M191.14,92.59 L191.14,91.4 L193.73,91.4 L193.73,92.59 L191.14,92.59 Z M188.94,101.65 L195.77,101.65 L195.77,102.65 C196.02,102.65 196.23,102.65 196.4,102.6 C196.617544,102.602039 196.834703,102.618744 197.05,102.65 C197.05,102.14 197,101.65 196.98,101.24 L196.98,99.5 C196.98,99.15 196.98,98.75 197.05,98.3 C196.57,98.3 196.14,98.36 195.76,98.37 L188.98,98.37 C188.565744,98.3678212 188.15187,98.3444574 187.74,98.3 C187.74,98.74 187.8,99.15 187.81,99.53 L187.81,101.2 C187.81,101.59 187.81,102.06 187.74,102.6 L188.37,102.54 C188.580963,102.548109 188.791299,102.568141 189,102.6 L189,101.65 L188.94,101.65 Z M188.94,100.65 L188.94,99.28 L195.77,99.28 L195.77,100.65 L188.94,100.65 Z M194.86,97.54 C195.251006,97.5412993 195.641628,97.5646699 196.03,97.61 C196.03,97.25 195.97,96.93 195.97,96.61 L195.97,95.51 C195.97356,95.1758834 195.993585,94.8421453 196.03,94.51 C195.59,94.51 195.19,94.58 194.84,94.59 L189.84,94.59 C189.438849,94.5850189 189.038262,94.5583131 188.64,94.51 C188.64,94.9 188.7,95.26 188.71,95.58 L188.71,96.7 C188.704153,97.0343273 188.680787,97.3681185 188.64,97.7 L189.85,97.63 L194.86,97.54 Z M189.8,96.63 L189.8,95.43 L194.89,95.43 L194.89,96.63 L189.8,96.63 Z" id="Shape" fill="#FFFFFF"></path>
            <path d="M216.75,91.71 C217.09,91.71 218.03,91.71 219.58,91.8 C219.58,91.52 219.53,91.31 219.52,91.15 C219.526252,90.9356006 219.546293,90.7218256 219.58,90.51 L217.96,90.59 L216.75,90.59 L214,90.59 L213.55,89 C213.316824,89.0757229 213.079831,89.1391437 212.84,89.19 L212.06,89.3 C212.14,89.44 212.23,89.59 212.31,89.75 C212.445912,90.0215874 212.562858,90.3022585 212.66,90.59 L208.66,90.59 C208.58,90.59 207.94,90.59 206.75,90.49 C206.75,90.77 206.8,90.97 206.81,91.11 C206.803184,91.3343184 206.783149,91.5580398 206.75,91.78 L210.07,91.69 L216.75,91.71 Z M209.24,97 C209.569125,97.1690935 209.872226,97.3846322 210.14,97.64 C210.3,97.46 210.47,97.29 210.65,97.12 C210.65,97.46 210.71,97.76 210.72,98.04 L210.72,99.54 C210.719545,99.8745413 210.696157,100.208658 210.65,100.54 C211.41,100.48 212,100.46 212.41,100.47 C213.61,100.47 214.41,100.47 214.79,100.47 L215.18,100.47 C215.18,100.11 215.12,99.77 215.11,99.47 L215.11,98 C215.11,97.71 215.11,97.36 215.18,97 L213.9,97.07 L211.9,97.07 C211.7,97.07 211.34,97.07 210.81,97 L211.93,96 L212.43,95.59 C212.075906,95.4070835 211.740918,95.1893413 211.43,94.94 C211.32,95.07 211.21,95.2 211.1,95.35 C210.66406,95.8672834 210.155438,96.3186431 209.59,96.69 C209.469036,96.7525744 209.352137,96.8227136 209.24,96.9 L209.24,94.55 L216.9,94.55 L216.9,100.69 C216.911834,100.813658 216.872024,100.936708 216.79,101.03 C216.63451,101.127487 216.453417,101.176243 216.27,101.17 C215.935037,101.162252 215.600963,101.132185 215.27,101.08 C215.516747,101.538294 215.695295,102.030143 215.8,102.54 L216.88,102.36 L217.56,102.15 C217.683399,102.108583 217.803701,102.058457 217.92,102 C218.12,101.86 218.21,101.54 218.21,101 L218.21,94.07 C218.21,93.88 218.21,93.65 218.21,93.39 C217.59,93.39 217.05,93.45 216.58,93.46 L214.89,93.46 L215.75,92.3 C215.536292,92.2528243 215.328388,92.1824053 215.13,92.09 C214.937889,92.0194408 214.750792,91.9359152 214.57,91.84 C214.47,92.04 214.38,92.24 214.29,92.44 C214.125484,92.7872274 213.93494,93.1215142 213.72,93.44 L210.8,93.44 C211.171494,93.2586565 211.560064,93.1146178 211.96,93.01 L211.33,91.78 C210.939207,91.9367869 210.5383,92.0670816 210.13,92.17 C210.223595,92.2860801 210.307225,92.4098527 210.38,92.54 C210.562884,92.8142045 210.694985,93.1190526 210.77,93.44 L209.26,93.44 C208.812411,93.4403332 208.365118,93.4169672 207.92,93.37 C207.92,93.9 207.98,94.37 207.99,94.65 L207.99,100.65 C207.99,101.08 207.99,101.65 207.9,102.29 C208.123181,102.301662 208.346819,102.301662 208.57,102.29 L209.31,102.29 C209.26,101.23 209.22,100.6 209.21,100.4 L209.21,97 L209.24,97 Z M211.82,99.51 L211.82,98 L214,98 L214,99.5 L211.82,99.51 Z M214.1,96 C214.26,96.12 214.47,96.28 214.72,96.49 C214.97,96.7 215.19,96.92 215.35,97.09 L215.78,97.55 C216.068027,97.2368431 216.382526,96.9491103 216.72,96.69 L214.32,94.9 C214.067828,95.1561516 213.785809,95.3810952 213.48,95.57 L214.1,96 Z" id="Shape" fill="#FFFFFF"></path>
            <path d="M0.92,0.44 L108.08,0.44 L108.08,9.56 L106.08,9.56 C108.102937,13.2785439 108.316974,17.7173317 106.661204,21.6132615 C105.005433,25.5091912 101.661149,28.4356926 97.58,29.56 L108.05,29.56 L108.05,38.68 L10,38.68 L10,48.34 L108,48.34 L108,57.47 L10,57.47 L10,67.1 L108,67.1 L108,76.22 L0.91,76.22 L0.91,29.53 L90.23,29.53 C86.1488511,28.4056926 82.8045666,25.4791912 81.1487965,21.5832615 C79.4930264,17.6873317 79.7070629,13.2485439 81.73,9.53 L0.91,9.53 C0.91,6.53 0.91,3.45 0.91,0.41 L0.92,0.44 Z M97.71,12.37 C95.9005192,10.5729134 93.0741326,10.3028507 90.9570757,11.7247548 C88.8400188,13.1466589 88.0209004,15.8651953 89.0000029,18.2199988 C89.9791054,20.5748023 92.4842073,21.9111629 94.9852999,21.4128891 C97.4863925,20.9146152 99.288093,18.7202426 99.2900062,16.17 C99.2921805,14.7431116 98.7232094,13.3746999 97.71,12.37 L97.71,12.37 Z" id="Shape" fill="#E6002D"></path>
            <path d="M116,1.28 L118.86,1.28 C119.970533,1.23888074 121.082434,1.30586269 122.18,1.48 C122.69973,1.61251847 123.186539,1.85081671 123.61,2.18 C124.040013,2.50915739 124.383264,2.93822058 124.61,3.43 C124.864889,3.94991426 124.998249,4.52096982 125,5.1 C125.03644,5.97877933 124.748106,6.8402215 124.19,7.52 C123.679654,8.13443479 122.973477,8.55461016 122.19,8.71 C120.964016,8.91041765 119.721789,8.99412567 118.48,8.96 L117.48,8.96 L117.48,15.64 L116,15.64 L116,1.28 Z M117.44,2.68 L117.44,7.58 L119.86,7.58 C120.882072,7.72649089 121.9212,7.4720838 122.76,6.87 C123.22774,6.40048643 123.487178,5.76270087 123.48,5.1 C123.48,3.49 122.32,2.68 119.98,2.68 L117.44,2.68 Z" id="Shape" fill="#FFFFFF"></path>
            <path d="M134.49,0.7 L141.19,15.64 L139.65,15.64 L137.39,10.74 L131.19,10.74 L129,15.64 L127.4,15.64 L134.13,0.7 L134.49,0.7 Z M134.31,3.88 L131.85,9.28 L136.75,9.28 L134.31,3.88 Z" id="Shape" fill="#FFFFFF"></path>
            <path d="M145.79,1.28 L148.65,1.28 C149.74758,1.24191375 150.846239,1.31225473 151.93,1.49 C152.47605,1.61186642 152.990461,1.84692857 153.44,2.18 C153.869877,2.50517599 154.213276,2.93099058 154.44,3.42 C154.683395,3.94627557 154.806379,4.52020131 154.8,5.1 C154.853421,6.22076521 154.366267,7.29919745 153.49,8 C152.427396,8.77318194 151.117777,9.12905654 149.81,9 L155,15.64 L153.22,15.64 L148.05,9 L147.23,9 L147.23,15.68 L145.79,15.68 L145.79,1.28 L145.79,1.28 Z M147.23,2.68 L147.23,7.56 L149.71,7.56 C150.649096,7.65014582 151.59355,7.45498192 152.42,7 C153.022048,6.56671483 153.352366,5.84912642 153.29,5.11 C153.359264,4.38591209 153.029938,3.68130887 152.43,3.27 C151.618096,2.82345426 150.694102,2.62198187 149.77,2.69 L147.23,2.68 Z" id="Shape" fill="#FFFFFF"></path>
            <polygon id="Path" fill="#FFFFFF" points="160.41 1.28 161.89 1.28 161.89 6.66 167.61 1.28 169.55 1.28 162.65 7.72 170.09 15.64 168.19 15.64 161.89 8.94 161.89 15.64 160.41 15.64"></polygon>
            <polygon id="Path" fill="#FFFFFF" points="173.48 1.28 174.96 1.28 177.88 11.98 182 1.28 182.28 1.28 186.36 11.98 189.34 1.28 190.81 1.28 186.68 16 186.4 16 182.14 4.78 177.8 16 177.54 16"></polygon>
            <path d="M200.17,0.7 L206.87,15.64 L205.33,15.64 L203.07,10.74 L196.87,10.74 L194.63,15.64 L193,15.64 L199.81,0.7 L200.17,0.7 Z M200,3.88 L197.54,9.28 L202.44,9.28 L200,3.88 Z" id="Shape" fill="#FFFFFF"></path>
            <polygon id="Path" fill="#FFFFFF" points="208.02 1.28 209.68 1.28 213.34 7.2 216.96 1.28 218.62 1.28 214.06 8.78 214.06 15.64 212.66 15.64 212.66 8.78"></polygon>
            <polygon id="Path" fill="#FFFFFF" points="116.28 24.52 124.52 24.52 124.52 25.94 117.72 25.94 117.72 30.43 124.46 30.43 124.46 31.83 117.72 31.83 117.72 37.47 124.46 37.47 124.46 38.89 116.28 38.89"></polygon>
            <path d="M136.13,23.94 L142.83,38.94 L141.29,38.94 L139,34 L132.8,34 L130.56,38.9 L129,38.9 L135.78,23.95 L136.13,23.94 Z M136,27.13 L133.54,32.53 L138.44,32.53 L136,27.13 Z" id="Shape" fill="#FFFFFF"></path>
            <path d="M147.09,36.21 L148.31,35.49 C149.16,37.06 150.16,37.85 151.31,37.85 C152.003137,37.8657433 152.675948,37.6152288 153.19,37.15 C153.695066,36.7142924 153.980773,36.0769456 153.97,35.41 C153.945518,34.7976396 153.712672,34.2119958 153.31,33.75 C152.630902,32.971424 151.858409,32.279539 151.01,31.69 C150.295744,31.1815053 149.623574,30.6163473 149,30 C148.355741,29.3153576 147.997934,28.4101069 148,27.47 C147.985581,26.5716811 148.34829,25.7084327 149,25.09 C149.660416,24.4333512 150.558855,24.0725325 151.49,24.09 C152.220311,24.0755171 152.938087,24.2810936 153.55,24.68 C154.217995,25.1595469 154.793902,25.7557804 155.25,26.44 L154.09,27.34 C153.75532,26.8719565 153.365891,26.4455984 152.93,26.07 C152.511254,25.7347213 151.986091,25.5608498 151.45,25.58 C150.931648,25.5607222 150.426081,25.7435867 150.04,26.09 C149.677545,26.4277671 149.477296,26.9047232 149.49,27.4 C149.478807,27.9135775 149.652728,28.4140453 149.98,28.81 C150.670734,29.515221 151.431303,30.1484699 152.25,30.7 C153.180294,31.3587264 154.011986,32.1466445 154.72,33.04 C155.225351,33.6932829 155.502828,34.4941024 155.510025,35.32 C155.513812,36.3550244 155.073178,37.3418975 154.3,38.03 C153.550875,38.7677414 152.541404,39.1808701 151.49,39.18 C149.61,39.2266667 148.143333,38.2366667 147.09,36.21 Z" id="Path" fill="#FFFFFF"></path>
            <polygon id="Path" fill="#FFFFFF" points="160.38 25.93 160.38 24.52 168.26 24.52 168.26 25.93 165.06 25.93 165.06 38.89 163.6 38.89 163.6 25.93"></polygon>
            <path d="M185.84,68.45 L183.41,68.45 C185.265631,70.3572841 186.699932,72.6330869 187.62,75.13 L189.62,75.13 C188.854379,72.6490839 187.549942,70.3680261 185.8,68.45 L185.84,68.45 Z M170.84,74.71 C172.59376,72.7832626 173.898413,70.4915807 174.66,68 L172.66,68 C171.742885,70.4960438 170.312033,72.7717789 168.46,74.68 L170.84,74.71 Z M174.94,74.65 L177.42,74.65 C178.068302,74.6841008 178.622384,74.188108 178.66,73.54 L178.66,66.34 L169.91,66.34 L174.35,58.65 L168.12,58.65 L168.12,56.85 L175.51,56.85 L175.51,56.78 C175.77,56.31 176.51,54.9 176.78,54.43 L178.7,54.43 C178.45,54.86 177.7,56.22 177.44,56.64 L177.31,56.85 L190.6,56.85 L190.6,58.66 L176.44,58.66 L176.39,58.73 L173,64.54 L178.61,64.54 L178.61,61.75 L180.42,61.75 L180.42,64.54 L189.5,64.54 L189.5,66.34 L180.42,66.34 L180.42,74 C180.42,75.72 179.25,76.49 177.62,76.4800961 L174.88,76.4800961 L174.94,74.65 Z" id="Shape" fill="#FFFFFF"></path>
            <path d="M135.13,72 C135.106619,72.6387428 134.85055,73.2469072 134.41,73.71 C133.792873,74.3302485 132.944303,74.6638743 132.07,74.63 L119.37,74.63 C118.95,74.63 118.75,74.47 118.76,74.03 L118.76,69.65 C118.76,69.31 118.9,69.09 119.26,69.09 L134.64,69.09 C135.08,69.09 135.14,69.6 135.13,69.95 C135.13,70.6 135.13,71.37 135.13,72.01 L135.13,72 Z M135.13,66.73 C135.13,67.24 134.95,67.27 134.52,67.27 L119.52,67.27 C118.95,67.27 118.76,67.1 118.76,66.51 L118.76,62.81 C118.76,62.35 119.11,62.2 119.51,62.2 L134.51,62.2 C134.678864,62.1718242 134.850938,62.2269507 134.971994,62.3480062 C135.093049,62.4690617 135.148176,62.6411362 135.12,62.81 L135.12,66.75 L135.13,66.73 Z M137.65,57.83 L137.65,56 L115.59,56 L115.59,57.8 L125.21,57.8 C125.35,57.8 125.56,57.8 125.63,57.95 C125.7,58.1 125.57,58.28 125.51,58.42 C125.22,59.18 125.2,59.1 124.9,59.85 C124.79,60.14 124.67,60.35 124.32,60.35 L116.94,60.35 L116.94,76.41 L132.1,76.41 C133.44932,76.4588367 134.756586,75.9359304 135.7,74.97 C136.462941,74.1651564 136.904143,73.1084074 136.94,72 L136.94,60.38 L126.65,60.38 L127.58,58.2 C127.665565,57.9639696 127.900104,57.8158397 128.15,57.84 L137.65,57.83 Z" id="Shape" fill="#FFFFFF"></path>
            <path d="M160,65.78 L145.52,65.78 L145.52,64.69 L160.78,64.69 L160.78,65.28 C160.78,65.74 160.39,65.78 159.95,65.78 L160,65.78 Z M162.64,62.89 L143.71,62.89 L143.71,67.61 L160.54,67.61 C161.126858,67.5742742 161.674703,67.3040791 162.060267,66.8602107 C162.445831,66.4163424 162.636726,65.8360845 162.59,65.25 L162.59,62.89 L162.64,62.89 Z M152.14,74.64 L144.34,74.64 L144.34,73.29 L152.14,73.29 L152.14,74.64 Z M163.55,68.56 L142.55,68.56 L142.55,76.45 L161.27,76.45 C162.623684,76.3434319 163.644798,75.1758108 163.57,73.82 L163.57,68.56 L163.55,68.56 Z M161.75,71.48 L154,71.48 L154,70.13 L161.8,70.13 L161.8,71.47 L161.75,71.48 Z M154,74.64 L154,73.29 L161.8,73.29 L161.8,74.07 C161.8,74.73 161.21,74.64 160.59,74.64 L154,74.64 Z M152.19,71.48 L144.39,71.48 L144.39,70.13 L152.19,70.13 L152.19,71.48 L152.19,71.48 Z M162.59,62 L162.59,60.18 L143.71,60.18 L143.71,62 L162.59,62 Z M163.74,56.6 L154.25,56.6 L154.25,54.52 L152.44,54.52 L152.44,56.59 L142.35,56.59 L142.35,59.34 L144.16,59.34 L144.16,58.41 L161.93,58.41 L161.93,59.19 L163.74,59.19 L163.74,56.6 Z" id="Shape" fill="#FFFFFF"></path>
            <path d="M217.26,58.35 L217.26,56.55 L206.94,56.55 L206.94,54.43 L205.13,54.43 L205.13,56.55 L195,56.55 L195,58.35 L200.41,58.35 C199.93,62.35 199.41,65.35 198.93,69.42 C198.850236,71.1910358 198.073862,72.8588028 196.77,74.06 C196.396639,74.3627443 195.998582,74.633691 195.58,74.87 L196.19,76.46 C198.91,75.2 200.19,73.75 200.59,70.73 L201.59,63.79 L213.69,63.79 L213.69,72.61 C213.495767,73.7383821 212.534422,74.5743347 211.39,74.61 L204.78,74.61 L204.78,76.42 L211.46,76.42 C212.494984,76.454996 213.500819,76.0737267 214.252548,75.3614628 C215.004278,74.6491989 215.439184,73.6653666 215.46,72.63 L215.46,61.94 L201.78,61.94 L202.21,58.32 L217.26,58.35 Z" id="Path" fill="#FFFFFF"></path>
        </g>
    </g>
</svg>