<?xml version="1.0" encoding="UTF-8"?>
<svg width="151px" height="31px" viewBox="0 0 151 31" version="1.1" xmlns="http://www.w3.org/2000/svg" xmlns:xlink="http://www.w3.org/1999/xlink">
    <!-- Generator: Sketch 60.1 (88133) - https://sketch.com -->
    <title>高时石材logo</title>
    <desc>Created with Sketch.</desc>
    <g id="Page-1" stroke="none" stroke-width="1" fill="none" fill-rule="evenodd">
        <g id="高时石材logo" transform="translate(0.000000, -1.000000)" fill="#FFFFFF" fill-rule="nonzero">
            <path d="M97.62,23.39 L102.08,23.39 L102.08,24.14 L97.62,24.14 L97.62,23.39 Z M104.25,22.31 L95.43,22.31 L95.43,25.23 L104.27,25.23 L104.25,22.31 Z" id="Shape"></path>
            <polygon id="Path" points="100.77 21 99.83 21.93 98.89 21 93.5 21 93.5 22.08 106.16 22.08 106.16 21"></polygon>
            <rect id="Rectangle" transform="translate(99.832053, 20.215011) rotate(-45.000000) translate(-99.832053, -20.215011) " x="98.8520526" y="19.2350109" width="1.96" height="1.96"></rect>
            <polygon id="Path" points="100.39 28.71 99.31 28.71 99.31 27.02 97.13 27.02 97.13 31.48 99.31 31.48 99.31 29.8 100.39 29.8 100.39 31.48 102.56 31.48 102.56 27.02 100.39 27.02"></polygon>
            <polygon id="Path" points="93.5 25.45 93.5 25.45 93.5 31.48 95.67 31.48 95.67 26.54 103.99 26.54 103.99 31.48 106.16 31.48 106.16 25.45 106.16 25.45"></polygon>
            <path d="M133.19,29.9 L126.79,29.9 L126.79,25.22 L133.19,25.22 L133.19,29.9 Z M135.85,22.08 L135.85,22.08 L135.85,20.99 L123.19,20.99 L123.19,22.08 L124.58,22.08 L123.19,27.31 L124.62,27.31 L124.62,31.51 L126.79,31.51 L126.79,31.02 L133.19,31.02 L133.19,31.51 L135.36,31.51 L135.36,24.14 L126.27,24.14 L126.83,22.08 L135.85,22.08 Z" id="Shape"></path>
            <rect id="Rectangle" transform="translate(115.516463, 28.780411) rotate(-45.000000) translate(-115.516463, -28.780411) " x="114.536463" y="27.8004106" width="1.96" height="1.96"></rect>
            <polygon id="Path" points="121.03 22.08 121.03 21 118.55 21 118.55 18.82 116.38 18.82 116.38 21 113.91 21 113.91 22.08 116.38 22.08 116.38 24.14 113.91 24.14 113.91 25.23 117.32 25.23 117.32 25.71 110.77 25.71 110.77 26.8 111.25 26.8 111.25 30.39 110.5 30.39 110.5 22.08 111.25 22.08 111.25 25.23 113.42 25.23 113.42 21 108.33 21 108.33 31.48 113.42 31.48 113.42 26.8 117.32 26.8 117.32 31.48 119.49 31.48 119.49 26.8 121.03 26.8 121.03 25.71 119.49 25.71 119.49 25.23 121.03 25.23 121.03 24.14 118.55 24.14 118.55 22.08"></polygon>
            <polygon id="Path" points="150.68 21 149.75 21 149.75 18.82 147.57 18.82 147.57 21 143.87 21 143.87 22.08 147.57 22.08 147.57 22.57 146.26 22.57 143.87 31.48 146.11 31.48 147.57 26.16 147.57 31.48 149.75 31.48 149.75 22.08 150.68 22.08"></polygon>
            <polygon id="Path" points="141.81 23.88 141.81 22.08 143.38 22.08 143.38 21 141.81 21 141.81 18.82 139.63 18.82 139.63 21 138.03 21 138.03 22.08 139.63 22.08 139.63 22.57 138.47 22.57 138.03 27.74 139.63 27.74 139.63 31.48 141.81 31.48 141.81 25.94 140.76 24.93"></polygon>
            <rect id="Rectangle" transform="translate(142.480630, 24.927380) rotate(-45.000000) translate(-142.480630, -24.927380) " x="141.50063" y="23.9473796" width="1.96" height="1.96"></rect>
            <path d="M51.94,10.84 L56.32,10.84 L56.32,11.11 C56.2650871,11.5203163 56.4014674,11.9331434 56.69,12.23 C57.2208391,12.4631858 57.8036178,12.552844 58.38,12.49 L63.96,12.49 C64.3645233,12.529642 64.7710977,12.4385132 65.12,12.23 C65.3528626,11.9834006 65.4661342,11.6472396 65.43,11.31 C65.4728021,10.9484805 65.3157592,10.5922613 65.02,10.38 C64.4820259,10.1270995 63.8944472,9.99728557 63.3,10 L56.3,9.85 C54.58,9.85 53.38,9.48 52.78,8.85 C52.0652767,7.91031407 51.7329876,6.73479662 51.85,5.56 C51.8400844,4.86456331 51.9276008,4.17116395 52.11,3.5 C52.2338008,2.98168319 52.5087604,2.51181553 52.9,2.15 C53.3702139,1.71241146 53.9572694,1.42062054 54.59,1.31 C55.6890968,1.0912859 56.8102973,1.00400682 57.93,1.05 L64.67,1.05 C65.9508281,0.934778021 67.2323591,1.26310415 68.3,1.98 C69.1140924,2.75298649 69.5145926,3.8654869 69.38,4.98 L69.38,5.28 C69.3909458,5.44314995 69.3909458,5.60685005 69.38,5.77 L65.08,5.77 L65.08,5.77 C65.1147895,5.3760523 64.9925932,4.98430537 64.74,4.68 C64.4328577,4.40889618 64.0281954,4.27521311 63.62,4.31 L58.53,4.31 C57.9538594,4.2564467 57.3734013,4.34574795 56.84,4.57 C56.6005865,4.74386329 56.4504594,5.01482432 56.43,5.31 C56.4126697,5.65021342 56.5483925,5.98034989 56.8,6.21 C57.225385,6.44356356 57.7048332,6.56083866 58.19,6.55 L65.43,6.69 C66.7107451,6.58880936 67.9805311,6.99054957 68.97,7.81 C69.7440139,8.84163328 70.1010492,10.1269603 69.97,11.41 C70.015515,12.2009718 69.889292,12.9924241 69.6,13.73 C69.3280134,14.3195663 68.8856722,14.8141525 68.33,15.15 C67.8457691,15.4342864 67.307713,15.6147735 66.75,15.68 C65.7827673,15.8152348 64.8065193,15.8754145 63.83,15.86 L57.96,15.86 C55.53,15.86 53.96,15.56 53.1,15.04 C52.2036265,14.3157631 51.7365587,13.1857603 51.86,12.04 C51.86,11.96 51.86,11.81 51.86,11.62 C51.8420858,11.3703209 51.8420858,11.1196791 51.86,10.87 L51.94,10.84 Z" id="Path"></path>
            <polygon id="Path" points="81.97 15.68 77.55 15.68 77.55 4.75 71.48 4.75 71.48 1.19 88.03 1.19 88.03 4.75 81.97 4.75"></polygon>
            <path d="M97.92,12.23 L100.73,12.23 C101.812936,12.3440917 102.905426,12.1353357 103.87,11.63 C104.437912,11.0589342 104.714087,10.2598675 104.62,9.46 L104.62,7.4 C104.714087,6.60013246 104.437912,5.80106577 103.87,5.23 C102.905426,4.72466431 101.812936,4.51590834 100.73,4.63 L97.92,4.63 C96.8334928,4.50707418 95.7352385,4.71626548 94.77,5.23 C94.1944501,5.82502869 93.9187767,6.64837314 94.02,7.47 L94.02,9.47 C93.9200976,10.2663612 94.2149657,11.0613853 94.81,11.6 C95.7648106,12.102327 96.8468472,12.31108 97.92,12.2 L97.92,12.23 Z M96.72,15.86 L96.72,15.86 C95.4793474,15.8911077 94.2382815,15.8175135 93.01,15.64 C92.330643,15.4948361 91.6834116,15.2271331 91.1,14.85 C90.5377608,14.4318229 90.110189,13.858251 89.87,13.2 C89.6168539,12.3402861 89.5020864,11.4457743 89.53,10.55 L89.53,6.55 C89.4988828,5.57511458 89.6134791,4.60104564 89.87,3.66 C90.106473,2.9997491 90.5347829,2.42518713 91.1,2.01 C91.7005692,1.60300174 92.3834117,1.33327895 93.1,1.22 C94.3149365,1.0432652 95.5426509,0.969669243 96.77,1 L101.98,1 C103.217285,0.971449133 104.454816,1.04503207 105.68,1.22 C106.367587,1.33769275 107.020168,1.60760817 107.59,2.01 C108.151187,2.43527888 108.569716,3.02121957 108.79,3.69 C109.066848,4.56221439 109.191997,5.47546236 109.16,6.39 L109.16,10.39 C109.194015,11.3177597 109.068872,12.2444915 108.79,13.13 C108.569716,13.7987804 108.151187,14.3847211 107.59,14.81 C107.008418,15.1906097 106.360518,15.4585894 105.68,15.6 C104.455124,15.7779983 103.217338,15.8515964 101.98,15.82 L96.72,15.86 Z" id="Shape"></path>
            <polygon id="Path" points="131.7 15.68 125.22 15.68 116.53 5.12 116.53 15.68 112.11 15.68 112.11 1.19 118.67 1.19 127.32 11.82 127.32 1.19 131.7 1.19"></polygon>
            <polygon id="Path" points="150.53 4.71 139.11 4.71 139.11 6.92 149.86 6.92 149.86 9.95 139.11 9.95 139.11 12.16 150.68 12.16 150.68 15.68 134.69 15.68 134.69 1.19 150.53 1.19"></polygon>
            <path d="M12.62,12.38 C12.9540982,12.3959305 13.2798873,12.2728546 13.52,12.04 C13.7304225,11.7502897 13.8362002,11.3976971 13.82,11.04 C13.8312789,10.7066536 13.7088678,10.3826243 13.48,10.14 C13.2627436,9.89474186 12.9474646,9.75909855 12.62,9.77 L4.43,9.77 L4.43,12.39 L12.62,12.38 Z M12.21,6.84 L12.21,6.84 C12.5322579,6.85583039 12.8456884,6.73191602 13.07,6.5 C13.2620083,6.25637373 13.354876,5.94919595 13.33,5.64 C13.3403766,5.31384548 13.233994,4.99469768 13.03,4.74 C12.8025532,4.54308313 12.5108239,4.43635289 12.21,4.44 L4.43,4.44 L4.43,6.84 L12.21,6.84 Z M13.74,15.68 L0,15.68 L0,1.18 L13.07,1.18 C14.3589074,1.08685309 15.6406252,1.43994339 16.7,2.18 C17.533614,2.94671539 17.9748823,4.04988608 17.9,5.18 C17.9238852,5.85601261 17.7388169,6.52295707 17.37,7.09 C16.9603641,7.6415897 16.4018282,8.06482807 15.76,8.31 C16.5306241,8.37314262 17.2471115,8.73138631 17.76,9.31 C18.2393849,10.0266238 18.4743913,10.8789605 18.43,11.74 C18.5258648,12.8497972 18.1312453,13.9459625 17.35,14.74 C16.3083154,15.4568385 15.0497821,15.7891479 13.79,15.68 L13.74,15.68 Z" id="Shape"></path>
            <path d="M35.31,6.39 L35.31,6.31 C35.3528473,5.81591414 35.1419496,5.3338622 34.75,5.03 C34.212368,4.73658778 33.6002666,4.60790737 32.99,4.66 L29.43,4.66 C28.4225494,4.55004112 27.4052919,4.7451316 26.51,5.22 C25.9930394,5.86008235 25.7616539,6.68439296 25.87,7.5 L25.87,9.5 C25.7676149,10.2813011 26.0293113,11.0663901 26.58,11.63 C27.442003,12.128037 28.4403643,12.3382183 29.43,12.23 L32.01,12.23 C32.9557633,12.305774 33.9063781,12.1655754 34.79,11.82 C35.2579532,11.4406756 35.4994012,10.8483734 35.43,10.25 L35.43,10.06 L39.93,10.06 C39.9160705,10.0953437 39.9160705,10.1346563 39.93,10.17 L39.93,11.17 C39.9506399,11.9465228 39.8390485,12.7208995 39.6,13.46 C39.3799297,14.0387927 39.0023774,14.544505 38.51,14.92 C37.9331226,15.3014636 37.2823033,15.557021 36.6,15.67 C35.4485257,15.843653 34.2841758,15.9172613 33.12,15.89 L28.19,15.89 C27.0741955,15.9115081 25.9589444,15.8244314 24.86,15.63 C24.1996287,15.4868553 23.5763631,15.2075778 23.03,14.81 C22.4632197,14.3679652 22.0219437,13.785343 21.75,13.12 C21.4600053,12.3053118 21.3210642,11.4445549 21.34,10.58 L21.34,6.58 C21.34,4.52 21.87,3.06 22.84,2.23 C23.81,1.4 25.61,1 28.19,1 L33.14,1 C34.3175444,0.968319509 35.495564,1.04194574 36.66,1.22 C37.2947233,1.32473495 37.8988475,1.56706724 38.43,1.93 C38.8905464,2.30373035 39.2370072,2.79916928 39.43,3.36 C39.6701994,4.08161075 39.7818936,4.83977732 39.76,5.6 L39.76,6.09 C39.7466667,6.18955556 39.7466667,6.29044444 39.76,6.39 L35.31,6.39 Z" id="Path"></path>
        </g>
    </g>
</svg>