<svg xmlns="http://www.w3.org/2000/svg" viewBox="0 0 155.14 309.41"><defs><style>.cls-1{fill:#fff;}</style></defs><title>LOGO-高时(1)</title><g id="图层_2" data-name="图层 2"><path class="cls-1" d="M219.42,144.73V322.08H195.93V167.38H174.16V292s-1.14,30.1-28.74,30.1h-32V168.19H88.75V322.08H65.85V144.73h47.57V57.82H64.28V36.24h49.1V12.67h42s18.5,0,18.5,17.62V35h45.59v23H174.16v86.8ZM157.14,289.27V169l-4.72-8.09a7.2,7.2,0,0,1-.06-7.16l4.73-8.44s.11-95.87,0-101.71-6.38-6.93-6.38-6.93h-21V301.6H146.6C157.14,301.6,157.14,289.27,157.14,289.27Z" transform="translate(-64.28 -12.67)"/><path class="cls-1" d="M146.6,169V263c0,3.08-2,5.57-4.56,5.57s-4.55-2.49-4.55-5.57c0,0,.22-78.07,0-84.4-.22-6.59,7.27-9.55,7.27-9.55Z" transform="translate(-64.28 -12.67)"/><path class="cls-1" d="M146.6,53.19v76.86a4.56,4.56,0,0,1-9.11,0s.22-63.86,0-69c-.22-5.39,7.27-7.82,7.27-7.82Z" transform="translate(-64.28 -12.67)"/></g></svg>