<?xml version="1.0" encoding="UTF-8"?>
<svg width="820px" height="216px" viewBox="0 0 820 216" version="1.1" xmlns="http://www.w3.org/2000/svg" xmlns:xlink="http://www.w3.org/1999/xlink">
    <!-- Generator: Sketch 60.1 (88133) - https://sketch.com -->
    <title>gongyeshejicheng</title>
    <desc>Created with Sketch.</desc>
    <g id="Page-1" stroke="none" stroke-width="1" fill="none" fill-rule="evenodd">
        <g id="广东工业设计城" transform="translate(-132.000000, -296.000000)">
            <g id="gongyeshejicheng" transform="translate(133.890800, 298.684100)">
                <polygon id="Fill-2" fill="#FFFFFF" points="392.3265 166.6346 397.5795 158.3606 407.1325 158.3606 407.1325 154.7516 415.4065 149.6596 415.4065 158.3606 445.1485 158.3606 439.8955 166.6346 415.4065 166.6346 415.4065 171.6906 408.5655 175.9006 408.5655 179.6676 417.6335 179.6676 417.6335 175.3186 425.0805 170.7366 425.0805 179.6676 438.3065 179.6676 433.0545 187.9426 425.0805 187.9426 425.0805 197.6546 414.3355 204.8596 414.3355 196.5846 417.6335 194.3726 417.6335 187.9426 401.1185 187.9426 401.1185 172.7316 407.1325 169.0306 407.1325 166.6346"></polygon>
                <polygon id="Fill-3" fill="#FFFFFF" points="400.3431 193.1629 409.4451 193.1629 404.1921 201.4359 395.0901 201.4359"></polygon>
                <polygon id="Fill-4" fill="#FFFFFF" points="439.4232 193.1629 430.3212 193.1629 435.5742 201.4359 444.6762 201.4359"></polygon>
                <polygon id="Fill-5" fill="#FFFFFF" points="467.0955 193.2381 461.8425 201.5121 511.3535 201.5121 516.6075 193.2381 493.4035 193.2381 493.4035 166.6341 509.5645 166.6341 514.8185 158.3601 470.7735 158.3601 465.5205 166.6341 485.9555 166.6341 485.9555 193.2381"></polygon>
                <polyline id="Fill-6" fill="#FFFFFF" points="566.5526 193.2381 566.5526 154.2431 573.9996 149.6601 573.9996 193.2381 590.6546 193.2381 585.4016 201.5121 534.2966 201.5121 539.5496 193.2381 552.4136 193.2381 552.4136 154.2431 559.8606 149.6601 559.8606 193.2381 567.4506 193.2381"></polyline>
                <polygon id="Fill-7" fill="#FFFFFF" points="540.6033 172.1297 549.7053 172.1297 542.6733 183.2037 533.5723 183.2037"></polygon>
                <polygon id="Fill-8" fill="#FFFFFF" points="583.7684 172.1297 592.8714 172.1297 585.8394 183.2037 576.7384 183.2037"></polygon>
                <polygon id="Fill-9" fill="#FFFFFF" points="627.8719 149.66 620.4249 154.243 620.4249 162.517 627.8719 157.934"></polygon>
                <polygon id="Fill-10" fill="#FFFFFF" points="614.6414 165.0457 627.8714 165.0457 627.8714 190.7067 612.3084 201.1427 612.3084 192.8677 620.4244 187.4257 620.4244 173.3197 609.3884 173.3197"></polygon>
                <polygon id="Fill-11" fill="#FFFFFF" points="376.4002 158.3602 356.1512 158.3602 356.1512 149.6602 347.8772 154.7522 347.8772 158.3602 332.3542 158.3602 328.7992 162.0822 328.7992 194.7142 325.5002 196.9252 325.5002 205.2002 336.2462 197.9962 336.2462 166.6342 371.1472 166.6342"></polygon>
                <polygon id="Fill-12" fill="#FFFFFF" points="662.5887 170.0555 649.8537 170.0555 649.8537 157.6005 642.8347 157.6005 642.8347 167.4065 632.0897 174.6105 632.0897 166.3355 635.3887 164.1245 635.3887 155.0175 639.2437 150.9815 657.2997 150.9815 657.2997 162.6085 667.3167 162.6085"></polygon>
                <polygon id="Fill-13" fill="#FFFFFF" points="653.6375 182.9705 633.9035 182.9705 638.3685 175.9375 660.2565 175.9375 660.2565 189.0285 655.2075 192.4135 660.2565 195.7595 660.2565 205.5035 647.8995 197.3145 635.5415 205.5995 635.5415 196.6965 653.6375 184.5625"></polygon>
                <polygon id="Fill-14" fill="#FFFFFF" points="703.8846 149.66 696.4376 154.243 696.4376 162.517 703.8846 157.934"></polygon>
                <polygon id="Fill-15" fill="#FFFFFF" points="688.3211 192.868 697.2651 186.871 697.2651 173.32 685.4011 173.32 690.6541 165.046 703.8841 165.046 703.8841 190.707 688.3211 201.142"></polygon>
                <polygon id="Fill-16" fill="#FFFFFF" points="731.0643 165.1541 745.4863 165.1541 740.2333 173.4281 731.0643 173.4281 731.0643 199.6621 722.7903 204.7541 722.7903 173.4281 708.3913 173.4281 713.6443 165.1541 722.7903 165.1541 722.7903 155.0151 731.0643 149.9241"></polygon>
                <polygon id="Fill-17" fill="#FFFFFF" points="767.5994 159.0389 774.2184 154.9659 774.2184 193.7959 763.0594 201.2779 763.0594 193.0039 767.5994 189.9599 767.5994 169.2169 760.7954 169.2169 764.7354 163.0109 767.5994 163.0109"></polygon>
                <polygon id="Fill-18" fill="#FFFFFF" points="781.8719 158.408 777.3249 163.167 777.3249 204.634 783.9449 200.56 783.9449 181.763 790.5829 181.763 790.5829 191.258 787.9779 193.004 787.9779 199.789 797.2019 193.604 797.2019 176.385 783.9449 176.385 783.9449 166.58 785.4279 165.027 799.9279 165.027 799.9279 195.624 817.2249 205.518 817.2249 197.244 806.5469 191.136 806.5469 188.621 817.7619 181.989 817.7619 175.183 806.5469 181.816 806.5469 165.027 811.1419 165.027 817.7619 160.954 817.7619 150.362 811.1419 154.436 811.1419 158.408 806.5469 158.408 806.5469 150.362 799.9279 154.436 799.9279 158.408"></polygon>
                <polygon id="Fill-19" fill="#FFFFFF" points="521.9305 67.6776 518.7615 64.3606 504.8285 64.3606 501.6595 61.0436 501.6595 51.2176 504.8285 47.9006 536.4695 47.9006 548.6785 60.6816 548.6785 101.5616 537.6265 113.1316 472.4365 113.1316 461.3845 101.5616 461.3845 19.8016 473.0665 7.5726 534.4575 7.5726 537.6265 10.8896 537.6265 20.7156 534.4575 24.0326 491.1615 24.0326 488.1325 27.2046 488.1325 93.3536 491.3015 96.6706 519.5845 96.6706 521.9305 94.2156"></polygon>
                <polygon id="Fill-20" fill="#FFFFFF" points="581.2713 113.1312 601.9653 113.1312 604.9923 109.9622 604.9923 10.7412 601.9653 7.5722 581.2713 7.5722 578.2443 10.7412 578.2443 109.9622"></polygon>
                <polygon id="Fill-21" fill="#FFFFFF" points="635.0291 7.5726 635.0291 24.0326 684.5231 24.0326 684.5231 94.2156 682.1771 96.6706 664.1231 96.6706 661.7771 94.2156 661.7771 49.2236 658.7511 46.0556 638.0561 46.0556 635.0291 49.2236 635.0291 113.1316 700.2191 113.1316 711.2711 101.5616 711.2711 19.8016 699.5901 7.5726"></polygon>
                <polygon id="Fill-22" fill="#FFFFFF" points="814.5926 24.0326 817.7616 20.7156 817.7616 10.8896 814.5926 7.5726 753.2006 7.5726 741.5196 19.8016 741.5196 101.5616 752.5716 113.1316 814.5926 113.1316 817.7616 109.8136 817.7616 99.9886 814.5926 96.6706 771.4366 96.6706 768.2676 93.3536 768.2676 27.2046 771.2966 24.0326"></polygon>
                <line x1="82.5584" y1="211.0536" x2="35.0284" y2="39.8536" id="Stroke-23" stroke="#FFFFFF" stroke-width="3.56" stroke-linecap="round" stroke-linejoin="round"></line>
                <polyline id="Stroke-24" stroke="#FFFFFF" stroke-width="3.56" stroke-linecap="round" stroke-linejoin="round" points="168.681 154.4188 76.669 139.7468 71.128 113.1268 146.01 68.8048 166.204 84.7108 168.681 154.4188"></polyline>
                <polyline id="Stroke-25" stroke="#FFFFFF" stroke-width="3.56" stroke-linecap="round" stroke-linejoin="round" points="168.681 154.4188 138.83 189.7198 82.558 211.0538 40.857 182.5858 1.42108547e-14 108.3008 35.028 39.8538 139.576 51.8278 128.317 67.3758 0.894 108.3008"></polyline>
                <polyline id="Stroke-26" stroke="#FFFFFF" stroke-width="3.56" stroke-linecap="round" stroke-linejoin="round" points="40.8568 182.5858 168.6808 154.4188 189.4368 157.6258 199.2658 132.2488 209.0958 0.0008"></polyline>
                <line x1="139.178" y1="189.5936" x2="146.01" y2="68.8046" id="Stroke-27" stroke="#FFFFFF" stroke-width="3.56" stroke-linecap="round" stroke-linejoin="round"></line>
                <line x1="76.6688" y1="139.7469" x2="166.2038" y2="84.7109" id="Stroke-28" stroke="#FFFFFF" stroke-width="3.56" stroke-linecap="round" stroke-linejoin="round"></line>
                <line x1="71.1282" y1="113.1263" x2="199.2662" y2="132.2493" id="Stroke-29" stroke="#FFFFFF" stroke-width="3.56" stroke-linecap="round" stroke-linejoin="round"></line>
                <polyline id="Stroke-30" stroke="#FFFFFF" stroke-width="3.56" stroke-linecap="round" stroke-linejoin="round" points="188.9007 155.66 162.6297 29.131 209.0957 2.84217094e-14 274.3257 29.667 287.7297 61.657 265.9257 118.488 244.6597 128.496 220.1757 127.96 219.6467 107.78 265.9257 118.488"></polyline>
                <polyline id="Stroke-31" stroke="#FFFFFF" stroke-width="3.56" stroke-linecap="round" stroke-linejoin="round" points="219.6468 107.7796 234.2938 122.9556 233.9368 151.7286"></polyline>
                <line x1="233.9363" y1="151.7284" x2="220.1753" y2="127.9594" id="Stroke-32" stroke="#FFFFFF" stroke-width="3.56" stroke-linecap="round" stroke-linejoin="round"></line>
                <line x1="244.6595" y1="128.4959" x2="274.3265" y2="29.6669" id="Stroke-33" stroke="#FFFFFF" stroke-width="3.56" stroke-linecap="round" stroke-linejoin="round"></line>
                <line x1="287.7293" y1="61.6566" x2="162.6293" y2="29.1306" id="Stroke-34" stroke="#FFFFFF" stroke-width="3.56" stroke-linecap="round" stroke-linejoin="round"></line>
            </g>
        </g>
    </g>
</svg>