<svg width="474" height="131" viewBox="0 0 474 131" fill="none" xmlns="http://www.w3.org/2000/svg">
<path fill-rule="evenodd" clip-rule="evenodd" d="M45.39 38.16C49.1479 38.16 52.8213 37.0457 55.9458 34.9579C59.0704 32.8702 61.5057 29.9028 62.9437 26.431C64.3818 22.9592 64.7581 19.1389 64.0249 15.4533C63.2918 11.7676 61.4822 8.38217 58.825 5.72497C56.1678 3.06777 52.7824 1.2582 49.0967 0.525077C45.4111 -0.208042 41.5908 0.168219 38.119 1.60628C34.6472 3.04435 31.6798 5.47963 29.5921 8.60416C27.5043 11.7287 26.39 15.4022 26.39 19.16C26.39 24.1991 28.3918 29.0318 31.955 32.595C35.5182 36.1582 40.3509 38.16 45.39 38.16V38.16Z" fill="white"/>
<path fill-rule="evenodd" clip-rule="evenodd" d="M12.72 65.9C15.2912 65.9 17.8046 65.1376 19.9424 63.7091C22.0803 62.2806 23.7465 60.2503 24.7304 57.8749C25.7144 55.4994 25.9718 52.8856 25.4702 50.3638C24.9686 47.8421 23.7305 45.5257 21.9124 43.7076C20.0943 41.8895 17.7779 40.6514 15.2562 40.1498C12.7344 39.6482 10.1206 39.9056 7.74512 40.8896C5.36968 41.8735 3.33935 43.5397 1.9109 45.6776C0.482438 47.8154 -0.279999 50.3288 -0.279999 52.9C-0.279999 56.3478 1.08964 59.6544 3.52761 62.0924C5.96559 64.5304 9.27219 65.9 12.72 65.9V65.9Z" fill="white"/>
<path d="M48.5031 100.869C56.4786 99.5746 61.8946 92.0596 60.5999 84.0841C59.3053 76.1085 51.7904 70.6926 43.8149 71.9872C35.8393 73.2818 30.4234 80.7968 31.718 88.7723C33.0126 96.7478 40.5275 102.164 48.5031 100.869Z" fill="white"/>
<path d="M85.2381 125.805C88.6264 122.669 88.8305 117.379 85.6941 113.991C82.5576 110.603 77.2683 110.399 73.88 113.535C70.4918 116.672 70.2877 121.961 73.4241 125.349C76.5606 128.737 81.8499 128.941 85.2381 125.805Z" fill="white"/>
<path fill-rule="evenodd" clip-rule="evenodd" d="M355.41 71.61H376C376 71.61 377.94 60.46 370.66 54.4C366.893 51.4565 362.24 49.8772 357.46 49.92H355.4C348.85 50.16 344.49 52.22 341.83 54.28C337 58 333.6 63.13 333.48 70C332.99 83.7 346.08 87.33 353.11 87.45C353.879 87.4728 354.648 87.4327 355.41 87.33C366.68 86.33 372.25 80.18 375.04 75.09H361.83C361.103 76.1399 360.148 77.0118 359.036 77.6404C357.924 78.2691 356.685 78.6381 355.41 78.72C354.891 78.833 354.36 78.8767 353.83 78.85C347.17 78.48 345.83 73.52 345.96 71.58L355.41 71.61ZM355.41 58.4H356.26C361.26 58.4 362.92 61.4 363.53 63.49H347.29C348.073 62 349.237 60.7441 350.664 59.8501C352.09 58.956 353.728 58.4557 355.41 58.4V58.4Z" fill="white"/>
<path fill-rule="evenodd" clip-rule="evenodd" d="M326 54.4C322.22 51.4746 317.57 49.8976 312.79 49.92H310.73C305.868 49.9542 301.132 51.4757 297.16 54.28C292.4 58 289 63.13 288.76 70C288.4 83.7 301.37 87.33 308.51 87.45C309.239 87.4736 309.968 87.4334 310.69 87.33C321.96 86.33 327.54 80.18 330.33 75.09H317.12C316.378 76.1276 315.418 76.9903 314.307 77.6174C313.196 78.2445 311.962 78.6208 310.69 78.72C310.175 78.8333 309.647 78.8771 309.12 78.85C302.58 78.48 301.12 73.52 301.37 71.58H331.29C331.29 71.58 333.23 60.43 325.96 54.37L326 54.4ZM310.73 63.49H302.73C303.499 62.014 304.644 60.7664 306.048 59.8729C307.452 58.9794 309.067 58.4714 310.73 58.4H311.46C316.55 58.4 318.25 61.4 318.85 63.49H310.73Z" fill="white"/>
<path fill-rule="evenodd" clip-rule="evenodd" d="M278.59 38.77L276.28 50.64C274.47 50.64 273.5 50.52 271.28 50.52C269.609 50.4734 267.938 50.557 266.28 50.77C262.969 50.9167 259.717 51.6974 256.7 53.07C253.458 54.5475 250.689 56.8943 248.7 59.85C246.799 62.6046 245.708 65.8368 245.55 69.18C245.42 74.52 247.12 79.48 251.24 82.39C255 85.3 259.48 86.75 266.24 86.99C266.608 86.9694 266.977 87.0134 267.33 87.12H282.96L292.17 38.77H278.59ZM271 78.27C269.467 78.4071 267.924 78.3668 266.4 78.15C262.52 77.54 257.79 75.48 258.03 69.3C258.139 67.0893 258.948 64.9705 260.34 63.25C261.67 61.43 263.97 60.46 266.4 59.98C269.105 59.3903 271.885 59.225 274.64 59.49L271 78.27Z" fill="white"/>
<path fill-rule="evenodd" clip-rule="evenodd" d="M165.53 38.77H152.57L150.99 47.01H163.96L165.53 38.77Z" fill="white"/>
<path fill-rule="evenodd" clip-rule="evenodd" d="M150.15 51.25L143.36 87.12H156.32L163.11 51.25H150.15Z" fill="white"/>
<path fill-rule="evenodd" clip-rule="evenodd" d="M233.27 50.16C230.032 50.0357 226.79 50.156 223.57 50.52C220.434 50.9153 217.374 51.7747 214.49 53.07C209.506 55.645 205.691 60.0218 203.82 65.31C202.699 68.4201 202.531 71.7943 203.34 75C204.144 78.3276 206.122 81.2534 208.91 83.24C209.846 83.9807 210.851 84.6303 211.91 85.18C213.361 85.9187 214.91 86.4473 216.51 86.75C218.81 87.2375 221.161 87.4423 223.51 87.36C224.244 87.3262 224.976 87.246 225.7 87.12L226.7 86.87C226.212 88.8308 225.108 90.5834 223.55 91.87C217.25 97.08 204.65 94.66 201.26 93.69L199.2 104.23C203.8 104.96 214.34 106.78 223.55 104.11C227.612 103.037 231.274 100.807 234.09 97.69C237.85 93.32 239.18 88.48 240.52 81.45L246.47 51C242.097 50.3917 237.685 50.1076 233.27 50.15V50.16ZM228.66 77.91C227 78.3437 225.281 78.5058 223.57 78.39C221.553 78.4984 219.556 77.9473 217.88 76.82C216.889 76.0836 216.102 75.1068 215.592 73.9818C215.083 72.8568 214.869 71.6207 214.97 70.39C215.049 68.1221 215.809 65.9305 217.15 64.1C218.48 62.28 220.15 61.31 222.85 60.34C223.077 60.2421 223.324 60.2009 223.57 60.22C226.377 59.4824 229.31 59.3562 232.17 59.85L228.66 77.91Z" fill="white"/>
<path fill-rule="evenodd" clip-rule="evenodd" d="M201.52 62.4C201.64 58.52 200.31 55.49 197.76 53.67C195.7 52.22 191.95 51.25 186.49 51.74C184.122 52.1093 181.806 52.7571 179.59 53.67L180.07 51.25H167.71L160.81 87.12H173.17L176.07 72.12C176.47 69.297 177.418 66.5794 178.86 64.12C179.636 62.8065 180.865 61.8221 182.317 61.3524C183.768 60.8827 185.342 60.9601 186.74 61.57C188.92 62.66 189.16 64.96 187.95 70.78L184.95 87.14H197L201.11 65.81C201.4 64.34 201.4 63.25 201.52 62.4Z" fill="white"/>
<path fill-rule="evenodd" clip-rule="evenodd" d="M147.6 38.77H132.33C130.88 40.22 115.49 56.94 115.49 56.94L118.88 38.77H105.31L96 87.12H109.69L113.33 67.85L126.41 87.12H140.96L124.84 63.25L147.6 38.77Z" fill="white"/>
<path fill-rule="evenodd" clip-rule="evenodd" d="M463 75.57H471.17L471.6 72.18H461.46L461.72 70.09H457.47L457.2 72.18H447.89L447.46 75.57H454.65C452.369 77.6252 449.781 79.3121 446.98 80.57C446.86 79.78 446.67 78.65 446.43 77.17C446.19 75.69 445.98 74.72 445.87 73.93L443.21 74.22L443.7 78.06L441.54 78.36L442.35 72.01H446.77L448.82 55.92H444.41L445.13 50.31H440.71L440 55.92H435.75L433.69 72H437.94L437.07 78.79L431.62 79.23V82.77C436.287 82.1033 440.437 81.6133 444.07 81.3C444.31 82.7044 444.668 84.0859 445.14 85.43C449.379 83.5673 453.225 80.9132 456.47 77.61L455.47 85.43H459.72L460.72 77.61C462.14 80.07 464.79 82.3333 468.67 84.4C469.435 83.2594 470.339 82.2182 471.36 81.3C468.057 80.2322 465.132 78.2318 462.94 75.54L463 75.57ZM439.27 68.19H437L438.08 59.78H440.36L439.29 68.19H439.27ZM443.27 59.78H445.4L444.32 68.19H442.2L443.27 59.78Z" fill="white"/>
<path fill-rule="evenodd" clip-rule="evenodd" d="M450 69.37H470.8L471.22 66.13H454.55L455.55 58.01H458.49L457.59 64.38H469.2L470.09 58.01H473.69L474.12 54.62H470.53L471.07 50.33H467.15L466.6 54.62H462.85L463.39 50.33H459.47L458.92 54.62H456L456.44 51.22H452.35L451.92 54.62H449.92L449.49 58.01H451.49L450 69.37ZM462.45 58H466.21L465.65 61.72H461.89L462.45 58Z" fill="white"/>
<path fill-rule="evenodd" clip-rule="evenodd" d="M421.3 65.54L421.64 62.88C422.116 63.0446 422.581 63.2417 423.03 63.47C424.59 64.06 425.84 64.47 426.78 64.8C427.34 63.8 428.26 63.01 429.7 61.15C423.05 59.47 418.06 55.04 414.35 50.81H408.11C403.115 55.6924 397.062 59.3574 390.42 61.52C390.49 63.88 390.42 64.35 390.42 65.89C392.2 65.17 395.92 63.67 397.42 63.03L397.1 65.54H406.74L406.28 69.08H394L393.29 72.9H405.8L404.8 80.73H403.21C401.991 78.8913 400.679 77.1157 399.28 75.41C398.852 74.8776 398.399 74.367 397.92 73.88L394.06 76C394.32 76.3 395.34 77.63 396.66 79.3C396.92 79.64 397.14 79.92 397.66 80.78H390.06L386.23 84.32H425.6L426.05 80.78H418.14C420.056 79.4998 421.682 77.8302 422.91 75.88L419.24 73.96C418.56 75.3 414.88 79.52 410.96 80.78H410L411 72.95H424.6L425.09 69.12H411.53L411.98 65.58L421.3 65.54ZM400.38 61.7C404.248 59.7875 407.852 57.3807 411.1 54.54C413.426 57.432 416.276 59.8609 419.5 61.7H400.38Z" fill="white"/>
</svg>
