<?xml version="1.0" encoding="UTF-8"?>
<svg width="359px" height="74px" viewBox="0 0 359 74" version="1.1" xmlns="http://www.w3.org/2000/svg" xmlns:xlink="http://www.w3.org/1999/xlink">
    <!-- Generator: Sketch 60.1 (88133) - https://sketch.com -->
    <title>鹏广达LOGO</title>
    <desc>Created with Sketch.</desc>
    <defs>
        <polygon id="path-1" points="0 150 433.174 150 433.174 0.913 0 0.913"></polygon>
    </defs>
    <g id="Page-1" stroke="none" stroke-width="1" fill="none" fill-rule="evenodd">
        <g id="鹏广达LOGO" transform="translate(-36.000000, -51.000000)">
            <polygon id="Fill-1" fill="#D8232A" points="36.429 51.0314 89.203 51.0314 89.203 103.8054 68.094 103.8054 68.094 114.3604 99.758 114.3604 99.758 103.8054 99.758 51.0314 110.311 51.0314 110.311 124.9144 57.538 124.9144 57.538 72.1404 78.648 72.1404 78.648 61.5864 57.538 61.5864 46.984 61.5864 46.984 72.1404 46.984 124.9144 36.429 124.9144"></polygon>
            <polygon id="Fill-2" fill="#FFFFFE" points="187.97 63.312 230.523 63.312 230.523 58.967 187.97 58.967"></polygon>
            <polygon id="Fill-3" fill="#FFFFFE" points="205.285 60.509 212.895 60.509 212.895 54.23 205.285 54.23"></polygon>
            <g id="Group-50" transform="translate(0.000000, 0.087000)">
                <path d="M195.64,58.8809 L195.64,82.2359 C195.023,88.8719 191.334,94.4039 188.409,97.0239 L183.122,97.0239 C184.906,92.7969 187.283,85.4289 187.283,82.3609 L187.283,58.8809 L195.64,58.8809 Z" id="Fill-4" fill="#FFFFFE"></path>
                <mask id="mask-2" fill="white">
                    <use xlink:href="#path-1"></use>
                </mask>
                <g id="Clip-7"></g>
                <polygon id="Fill-6" fill="#FFFFFE" mask="url(#mask-2)" points="346.132 58.394 394.4 58.394 394.4 53.94 346.132 53.94"></polygon>
                <polygon id="Fill-8" fill="#FFFFFE" mask="url(#mask-2)" points="346.132 96.898 394.4 96.898 394.4 92.444 346.132 92.444"></polygon>
                <polygon id="Fill-9" fill="#FFFFFE" mask="url(#mask-2)" points="346.132 95.676 353.939 95.676 353.939 56.038 346.132 56.038"></polygon>
                <polygon id="Fill-10" fill="#FFFFFE" mask="url(#mask-2)" points="386.593 95.676 394.4 95.676 394.4 56.038 386.593 56.038"></polygon>
                <polygon id="Fill-11" fill="#FFFFFE" mask="url(#mask-2)" points="355.148 68.513 385.384 68.513 385.384 64.059 355.148 64.059"></polygon>
                <polygon id="Fill-12" fill="#FFFFFE" mask="url(#mask-2)" points="373.451 91.017 381.258 91.017 381.258 59.755 373.451 59.755"></polygon>
                <path d="M372.3148,67.9224 L364.2348,67.7914 C364.1088,73.4764 363.2948,82.7704 356.1408,91.0174 L361.4408,91.0174 C361.4408,91.0174 370.4248,83.7484 372.3148,67.9224" id="Fill-13" fill="#FFFFFE" mask="url(#mask-2)"></path>
                <polygon id="Fill-14" fill="#FFFFFE" mask="url(#mask-2)" points="308.816 61.54 340.628 61.54 340.628 57.086 308.816 57.086"></polygon>
                <polygon id="Fill-15" fill="#FFFFFE" mask="url(#mask-2)" points="308.816 67.046 340.628 67.046 340.628 62.593 308.816 62.593"></polygon>
                <polygon id="Fill-16" fill="#FFFFFE" mask="url(#mask-2)" points="308.816 72.553 340.628 72.553 340.628 68.099 308.816 68.099"></polygon>
                <polygon id="Fill-17" fill="#FFFFFE" mask="url(#mask-2)" points="308.816 78.06 340.628 78.06 340.628 73.606 308.816 73.606"></polygon>
                <polygon id="Fill-18" fill="#FFFFFE" mask="url(#mask-2)" points="320.817 76.837 328.624 76.837 328.624 54.024 320.817 54.024"></polygon>
                <polygon id="Fill-19" fill="#FFFFFE" mask="url(#mask-2)" points="293.78 84.87 340.628 84.87 340.628 80.416 293.78 80.416"></polygon>
                <polygon id="Fill-20" fill="#FFFFFE" mask="url(#mask-2)" points="296.936 78.06 304.743 78.06 304.743 59.75 296.936 59.75"></polygon>
                <path d="M299.2269,53.9908 L309.3649,53.9908 C309.3649,53.9908 304.5879,65.2168 291.2349,68.7308 L291.2349,64.3378 C291.2349,63.8408 296.5119,62.1778 299.2269,53.9908" id="Fill-21" fill="#FFFFFE" mask="url(#mask-2)"></path>
                <path d="M320.6068,84.0816 L325.0678,84.0816 C325.0678,84.0816 332.2128,89.0046 340.5148,89.2106 L340.5148,96.9466 C340.5148,96.9466 328.2068,95.6226 320.6068,84.0816" id="Fill-22" fill="#FFFFFE" mask="url(#mask-2)"></path>
                <path d="M313.6878,84.0816 L309.2268,84.0816 C309.2268,84.0816 302.0818,89.0046 293.7798,89.2106 L293.7798,96.9466 C293.7798,96.9466 306.0878,95.6226 313.6878,84.0816" id="Fill-23" fill="#FFFFFE" mask="url(#mask-2)"></path>
                <polygon id="Fill-24" fill="#FFFFFE" mask="url(#mask-2)" points="313.377 96.898 321.184 96.898 321.184 79.152 313.377 79.152"></polygon>
                <polygon id="Fill-25" fill="#FFFFFE" mask="url(#mask-2)" points="245.7122 54.1431 247.2502 62.8931 239.2612 62.8931 237.7232 54.1431"></polygon>
                <polygon id="Fill-26" fill="#FFFFFE" mask="url(#mask-2)" points="251.377 65.88 284.111 65.88 284.111 61.534 251.377 61.534"></polygon>
                <path d="M271.8421,54.3726 C271.8381,57.9366 271.8171,62.6126 272.0011,66.1736 C272.6241,78.1866 278.3751,83.0506 285.1381,85.5336 L285.1381,89.3316 C276.6681,87.5006 271.3111,83.2366 267.9381,78.3076 C264.5591,83.1706 259.2271,87.3656 250.8451,89.1786 L250.8451,85.3796 C257.6081,82.8966 263.3601,78.0336 263.9831,66.0196 C264.1641,62.5106 264.1461,57.8856 264.1431,54.3726 L271.8421,54.3726 Z" id="Fill-27" fill="#FFFFFE" mask="url(#mask-2)"></path>
                <path d="M249.4808,86.8668 C249.4808,90.2128 250.6818,92.7338 254.3458,93.1038 C260.6608,93.7428 285.7298,93.7428 285.7298,93.7428 L285.7298,96.9858 L254.9298,96.9858 C254.9298,96.9858 248.4238,97.2018 245.6548,93.0968 C242.7068,96.4378 236.6668,96.9858 236.6668,96.9858 L236.6668,93.7428 C240.9368,92.8828 241.3878,88.6268 241.4258,87.3318 L241.4258,70.1488 L236.0278,70.1488 L236.0278,65.8038 L249.4808,65.8038 L249.4808,86.8668 Z" id="Fill-28" fill="#FFFFFE" mask="url(#mask-2)"></path>
                <polygon id="Fill-29" fill="#FFFFFE" mask="url(#mask-2)" points="250.845 65.881 285.138 65.881 285.138 61.427 250.845 61.427"></polygon>
                <path d="M123.2352,55.0894 L128.9952,55.0894 L128.9952,82.0074 C128.9952,85.2274 126.8102,91.7834 123.3642,97.0594 L120.1212,97.0594 C122.4452,94.4994 123.2352,85.7834 123.2352,82.2734 L123.2352,55.0894 Z" id="Fill-30" fill="#FFFFFE" mask="url(#mask-2)"></path>
                <polygon id="Fill-31" fill="#FFFFFE" mask="url(#mask-2)" points="149.98 62.353 175.192 62.353 175.192 58.008 149.98 58.008"></polygon>
                <polygon id="Fill-32" fill="#FFFFFE" mask="url(#mask-2)" points="149.96 81.315 158.2 81.315 158.2 58.008 149.96 58.008"></polygon>
                <polygon id="Fill-33" fill="#FFFFFE" mask="url(#mask-2)" points="167.781 74.634 175.137 74.634 175.137 58.009 167.781 58.009"></polygon>
                <polygon id="Fill-34" fill="#FFFFFE" mask="url(#mask-2)" points="149.98 81.316 175.192 81.316 175.192 76.97 149.98 76.97"></polygon>
                <path d="M177.6175,77.0059 L177.6175,83.4229 C177.0805,89.2059 174.2105,94.1499 171.5455,97.0589 L165.5705,97.0589 C167.2735,92.7529 169.2615,86.3529 169.2615,83.5479 L169.2615,77.0059 L177.6175,77.0059 Z" id="Fill-35" fill="#FFFFFE" mask="url(#mask-2)"></path>
                <polygon id="Fill-36" fill="#FFFFFE" mask="url(#mask-2)" points="154.895 58.756 162.505 58.756 162.505 53.863 154.895 53.863"></polygon>
                <path d="M159.2943,64.7149 L162.2923,74.4429 L167.4573,70.2579 C167.4573,70.2579 166.6113,67.1189 162.8383,64.7149 L159.2943,64.7149 Z" id="Fill-37" fill="#FFFFFE" mask="url(#mask-2)"></path>
                <polygon id="Fill-38" fill="#FFFFFE" mask="url(#mask-2)" points="149.98 89.344 175.192 89.344 175.192 84.999 149.98 84.999"></polygon>
                <polygon id="Fill-39" fill="#FFFFFE" mask="url(#mask-2)" points="124.84 59.434 133.588 59.434 133.588 55.089 124.84 55.089"></polygon>
                <polygon id="Fill-40" fill="#FFFFFE" mask="url(#mask-2)" points="124.84 68.66 133.588 68.66 133.588 64.314 124.84 64.314"></polygon>
                <polygon id="Fill-41" fill="#FFFFFE" mask="url(#mask-2)" points="124.84 79.457 133.588 79.457 133.588 75.112 124.84 75.112"></polygon>
                <polygon id="Fill-42" fill="#FFFFFE" mask="url(#mask-2)" points="138.267 59.434 147.015 59.434 147.015 55.089 138.267 55.089"></polygon>
                <polygon id="Fill-43" fill="#FFFFFE" mask="url(#mask-2)" points="138.267 68.66 147.015 68.66 147.015 64.314 138.267 64.314"></polygon>
                <polygon id="Fill-44" fill="#FFFFFE" mask="url(#mask-2)" points="138.267 79.457 147.015 79.457 147.015 75.112 138.267 75.112"></polygon>
                <path d="M131.598,55.0894 L137.359,55.0894 L137.359,82.0074 C137.359,85.2274 135.173,91.7834 131.727,97.0594 L128.484,97.0594 C130.808,94.4994 131.598,85.7834 131.598,82.2734 L131.598,55.0894 Z" id="Fill-45" fill="#FFFFFE" mask="url(#mask-2)"></path>
                <path d="M142.4906,55.0894 L148.2526,55.0894 L148.2526,82.0074 C148.2526,85.2274 146.0666,91.7834 142.6206,97.0594 L139.3776,97.0594 C141.7016,94.4994 142.4906,85.7834 142.4906,82.2734 L142.4906,55.0894 Z" id="Fill-46" fill="#FFFFFE" mask="url(#mask-2)"></path>
                <path d="M120.121,122.2056 L120.121,121.3816 C120.814,120.7746 121.132,119.8516 121.075,118.6086 L121.075,112.6746 L129.607,112.6746 L129.607,120.6436 C129.607,121.5676 129.129,122.0296 128.178,122.0296 L127.269,122.0296 L127.269,121.2076 L127.83,121.2076 C128.292,121.2356 128.508,121.0626 128.481,120.6876 L128.481,118.6956 L125.925,118.6956 L125.925,121.9446 L124.755,121.9446 L124.755,118.6956 L122.201,118.6956 C122.258,120.2556 121.565,121.4256 120.121,122.2056 L120.121,122.2056 Z M125.925,117.9606 L128.481,117.9606 L128.481,116.0536 L125.925,116.0536 L125.925,117.9606 Z M122.201,117.9606 L124.756,117.9606 L124.756,116.0536 L122.201,116.0536 L122.201,117.9606 Z M125.925,115.3166 L128.481,115.3166 L128.481,113.4966 L125.925,113.4966 L125.925,115.3166 Z M122.201,115.3166 L124.756,115.3166 L124.756,113.4966 L122.201,113.4966 L122.201,115.3166 Z M143.864,121.7706 C142.737,121.8286 142.188,121.3096 142.217,120.2116 L142.217,112.9766 L143.43,112.9766 L143.43,120.2116 C143.402,120.7906 143.704,121.0786 144.339,121.0786 L146.116,121.0786 C146.636,121.0786 146.895,120.8176 146.895,120.2986 L146.895,119.7346 L147.849,119.7346 L147.849,120.3856 C147.876,121.3396 147.387,121.8016 146.375,121.7706 L143.864,121.7706 Z M139.705,120.3436 C140.08,118.5216 140.327,116.5446 140.441,114.4076 L141.35,114.4076 C141.323,116.3136 141.149,118.2916 140.83,120.3436 L139.705,120.3436 Z M145.379,116.9626 C145.323,115.2606 145.133,113.6706 144.816,112.1976 L145.725,112.1976 C146.102,113.6706 146.375,115.2606 146.549,116.9626 L145.379,116.9626 Z M148.541,120.2986 C148.398,118.2196 148.137,116.2266 147.762,114.3206 L148.671,114.3206 C149.133,116.2836 149.466,118.2756 149.667,120.2986 L148.541,120.2986 Z M164.271,115.8806 L164.271,115.1436 C164.934,114.2486 165.324,113.2806 165.439,112.2416 L166.305,112.2416 C166.221,112.7906 166.104,113.2806 165.96,113.7146 L166.956,113.7146 L166.956,112.4156 L167.824,112.4156 L167.824,113.7146 L169.079,113.7146 L169.079,114.4506 L167.824,114.4506 L167.824,116.0976 L168.949,116.0976 L168.949,116.7906 L167.824,116.7906 L167.824,118.4366 L168.994,118.4366 L168.994,119.1726 L167.824,119.1726 L167.824,120.8616 L169.164,120.8616 L169.164,121.5556 L165.787,121.5556 L165.787,122.1616 L164.919,122.1616 L164.919,115.3166 C164.718,115.5186 164.501,115.7076 164.271,115.8806 L164.271,115.8806 Z M159.072,122.1616 L159.072,121.3816 C159.36,120.9196 159.49,120.1846 159.461,119.1726 L159.461,112.6316 L164.097,112.6316 L164.097,120.7326 C164.126,121.6276 163.692,122.0456 162.797,121.9876 L162.279,121.9876 L162.279,121.2526 L162.623,121.2526 C163.086,121.2796 163.302,121.1076 163.274,120.7326 L163.274,113.3676 L160.284,113.3676 L160.284,118.7826 C160.341,120.3436 159.938,121.4686 159.072,122.1616 L159.072,122.1616 Z M160.761,120.5596 L160.761,117.6556 L162.797,117.6556 L162.797,119.5176 C162.828,120.2406 162.48,120.5866 161.757,120.5596 L160.761,120.5596 Z M160.631,115.1876 L160.631,114.5366 L161.412,114.5366 L161.412,113.7576 L162.192,113.7576 L162.192,114.5366 L162.884,114.5366 L162.884,115.1876 L162.192,115.1876 L162.192,116.2686 L163.014,116.2686 L163.014,116.9626 L160.544,116.9626 L160.544,116.2686 L161.412,116.2686 L161.412,115.1876 L160.631,115.1876 Z M165.787,120.8616 L166.957,120.8616 L166.957,119.1726 L165.787,119.1726 L165.787,120.8616 Z M165.787,118.4366 L166.957,118.4366 L166.957,116.7906 L165.787,116.7906 L165.787,118.4366 Z M165.787,116.0976 L166.957,116.0976 L166.957,114.4516 L165.787,114.4516 L165.787,116.0976 Z M161.367,119.9076 L161.757,119.9076 C162.075,119.9376 162.221,119.7936 162.192,119.4766 L162.192,118.3066 L161.367,118.3066 L161.367,119.9076 Z M181.644,122.0746 L181.644,121.2096 C182.367,120.5166 182.698,119.2736 182.64,117.4826 L182.64,115.5776 L187.017,115.5776 L187.017,120.6876 C187.017,121.0066 187.176,121.1496 187.492,121.1226 C187.84,121.1496 187.996,121.0066 187.969,120.6876 L187.969,120.4306 L188.704,120.4306 L188.704,120.8196 C188.734,121.5126 188.359,121.8586 187.579,121.8586 L187.147,121.8586 C186.336,121.8886 185.949,121.5126 185.977,120.7326 L185.977,116.3136 L183.724,116.3136 L183.724,117.3536 C183.838,119.6646 183.145,121.2376 181.644,122.0746 L181.644,122.0746 Z M178.829,116.4426 L178.829,115.7076 L182.12,115.7076 L182.12,116.4426 L181.037,116.4426 L181.037,119.8656 C181.383,119.8096 181.76,119.7226 182.163,119.6046 L182.163,120.3436 C181.037,120.7456 179.868,120.9486 178.656,120.9486 L178.656,120.0816 C178.8,120.0816 179.016,120.0676 179.304,120.0396 C179.594,120.0396 179.811,120.0246 179.954,119.9956 L179.954,116.4426 L178.829,116.4426 Z M183.29,115.0996 L183.29,114.4926 C184.099,113.9436 184.605,113.1636 184.807,112.1546 L185.889,112.1546 C185.803,112.4426 185.716,112.6886 185.631,112.8906 L188.533,112.8906 L188.533,113.5836 L186.843,113.5836 C187.044,114.1596 187.176,114.6666 187.233,115.0996 L186.237,115.0996 C186.207,114.5796 186.106,114.0756 185.934,113.5836 L185.328,113.5836 C184.951,114.2196 184.273,114.7246 183.29,115.0996 L183.29,115.0996 Z M178.613,115.0996 L178.613,114.4926 C179.42,113.9736 179.927,113.2086 180.128,112.1976 L181.211,112.1976 C181.155,112.4576 181.082,112.6886 180.995,112.8906 L183.636,112.8906 L183.636,113.5836 L182.035,113.5836 C182.207,113.9586 182.337,114.4656 182.424,115.0996 L181.472,115.0996 C181.385,114.5226 181.269,114.0166 181.124,113.5836 L180.692,113.5836 C180.287,114.2476 179.594,114.7536 178.613,115.0996 L178.613,115.0996 Z M184.677,119.6496 C184.59,119.0706 184.404,118.2916 184.114,117.3096 L184.851,117.3096 C185.169,118.0326 185.4,118.8096 185.544,119.6496 L184.677,119.6496 Z M198.5,122.2486 L198.5,121.5556 C200.436,121.1806 201.879,120.7326 202.83,120.2136 C202.11,119.8656 201.273,119.5926 200.319,119.3896 L200.319,118.8266 C199.828,119.0586 199.236,119.2596 198.542,119.4336 L198.542,118.8266 C199.958,118.3066 200.925,117.5556 201.445,116.5736 L202.659,116.5736 C202.485,116.8326 202.34,117.0636 202.225,117.2676 L206.905,117.2676 L206.905,118.0026 C205.431,120.2556 202.629,121.6716 198.5,122.2486 L198.5,122.2486 Z M207.901,116.8326 C206.86,116.1966 206.296,115.1856 206.209,113.7996 L205.951,113.7996 L205.951,116.7016 L204.997,116.7016 L204.997,113.7996 L204.739,113.7996 C204.651,115.1856 204.058,116.1966 202.961,116.8326 L202.961,116.1826 C203.511,115.5756 203.827,114.7806 203.913,113.7996 L203.221,113.7996 L203.221,113.1066 L204.997,113.1066 L204.997,112.1526 L205.951,112.1526 L205.951,113.1066 L207.856,113.1066 L207.856,113.7996 L206.947,113.7996 C207.034,114.7246 207.352,115.5186 207.901,116.1826 L207.901,116.8326 Z M202.832,116.2686 C202.023,115.7496 201.59,114.9256 201.534,113.7996 L201.273,113.7996 L201.273,116.7016 L200.277,116.7016 L200.277,113.7996 L200.016,113.7996 C199.958,115.2436 199.352,116.2686 198.197,116.8756 L198.197,116.1826 C198.861,115.5466 199.208,114.7536 199.236,113.7996 L198.413,113.7996 L198.413,113.1066 L200.277,113.1066 L200.277,112.1526 L201.273,112.1526 L201.273,113.1066 L202.919,113.1066 L202.919,113.7996 L202.269,113.7996 C202.298,114.4636 202.485,115.0266 202.832,115.4886 L202.832,116.2686 Z M201.619,118.0026 C201.329,118.2636 200.982,118.4946 200.579,118.6956 C201.648,118.8696 202.6,119.1426 203.439,119.5196 L203.439,119.8656 C204.16,119.4036 204.853,118.7826 205.518,118.0026 L201.619,118.0026 Z M222.027,118.1766 L222.027,112.5876 L226.963,112.5876 L226.963,116.8326 C227.021,117.7866 226.574,118.2336 225.621,118.1766 L222.027,118.1766 Z M217.78,114.1046 L217.78,113.4116 L219.252,113.4116 L219.252,112.1546 L220.335,112.1546 L220.335,113.4116 L221.635,113.4116 L221.635,114.1046 L220.422,114.1046 C220.654,114.9416 221.071,115.6796 221.679,116.3136 L221.679,117.2676 C221.043,116.6886 220.596,116.1546 220.335,115.6646 L220.335,118.4366 L219.252,118.4366 L219.252,115.7946 C218.934,116.4576 218.414,117.1656 217.693,117.9156 L217.693,116.9646 C218.358,116.0676 218.848,115.1156 219.165,114.1046 L217.78,114.1046 Z M221.635,121.9006 C220.681,121.9306 220.219,121.5106 220.248,120.6456 L220.248,118.7386 L221.332,118.7386 L221.332,120.4286 C221.275,120.9766 221.548,121.2226 222.154,121.1656 L223.802,121.1656 C224.323,121.1926 224.568,120.9916 224.538,120.5596 L224.538,120.3406 L225.406,120.3406 L225.406,120.6456 C225.435,121.5106 224.971,121.9306 224.019,121.9006 L221.635,121.9006 Z M226.531,121.6426 C226.387,120.7746 226.126,119.8076 225.751,118.7386 L226.704,118.7386 C227.166,119.8936 227.455,120.8616 227.57,121.6426 L226.531,121.6426 Z M217.607,121.6426 C217.983,120.8326 218.286,119.8656 218.517,118.7386 L219.426,118.7386 C219.196,119.9796 218.934,120.9486 218.646,121.6426 L217.607,121.6426 Z M225.317,117.5256 C225.694,117.5256 225.88,117.3246 225.88,116.9196 L225.88,116.4876 L223.152,116.4876 L223.152,117.5256 L225.317,117.5256 Z M223.152,115.8366 L225.881,115.8366 L225.881,114.8406 L223.152,114.8406 L223.152,115.8366 Z M223.152,114.2336 L225.881,114.2336 L225.881,113.2806 L223.152,113.2806 L223.152,114.2336 Z M223.195,120.2556 C223.137,119.7936 222.994,119.2876 222.762,118.7386 L223.714,118.7386 C223.975,119.3446 224.133,119.8516 224.191,120.2556 L223.195,120.2556 Z" id="Fill-47" fill="#FFFFFE" mask="url(#mask-2)"></path>
                <path d="M249.4251,121.6949 L249.4251,112.7059 L252.2521,112.7059 C253.3241,112.7059 254.0241,112.7529 254.3481,112.8419 C254.8491,112.9759 255.2701,113.2689 255.6071,113.7209 C255.9451,114.1739 256.1131,114.7579 256.1131,115.4709 C256.1131,116.0229 256.0161,116.4879 255.8211,116.8629 C255.6251,117.2389 255.3791,117.5349 255.0781,117.7499 C254.7791,117.9639 254.4751,118.1059 254.1651,118.1739 C253.7441,118.2599 253.1351,118.3039 252.3361,118.3039 L251.1871,118.3039 L251.1871,121.6949 L249.4251,121.6949 Z M251.1871,114.2269 L251.1871,116.7769 L252.1511,116.7769 C252.8461,116.7769 253.3121,116.7309 253.5451,116.6359 C253.7791,116.5429 253.9621,116.3949 254.0971,116.1949 C254.2291,115.9939 254.2961,115.7609 254.2961,115.4959 C254.2961,115.1699 254.2021,114.8989 254.0151,114.6859 C253.8301,114.4739 253.5921,114.3409 253.3081,114.2879 C253.0961,114.2469 252.6731,114.2269 252.0391,114.2269 L251.1871,114.2269 Z M257.3081,121.6949 L257.3081,112.7059 L263.7791,112.7059 L263.7791,114.2269 L259.0701,114.2269 L259.0701,116.2199 L263.4521,116.2199 L263.4521,117.7329 L259.0701,117.7329 L259.0701,120.1799 L263.9461,120.1799 L263.9461,121.6949 L257.3081,121.6949 Z M265.2061,121.6949 L265.2061,112.7059 L266.9211,112.7059 L270.4951,118.7089 L270.4951,112.7059 L272.1341,112.7059 L272.1341,121.6949 L270.3631,121.6949 L266.8441,115.8329 L266.8441,121.6949 L265.2061,121.6949 Z M277.8071,118.3899 L277.8071,116.8749 L281.6061,116.8749 L281.6061,120.4559 C281.2371,120.8249 280.7011,121.1489 280.0001,121.4289 C279.2991,121.7079 278.5891,121.8469 277.8711,121.8469 C276.9581,121.8469 276.1611,121.6509 275.4831,121.2579 C274.8041,120.8619 274.2941,120.2989 273.9521,119.5649 C273.6111,118.8299 273.4401,118.0329 273.4401,117.1709 C273.4401,116.2349 273.6311,115.4019 274.0111,114.6739 C274.3931,113.9469 274.9501,113.3879 275.6861,113.0009 C276.2451,112.7019 276.9431,112.5529 277.7761,112.5529 C278.8601,112.5529 279.7071,112.7879 280.3151,113.2549 C280.9251,113.7229 281.3181,114.3699 281.4921,115.1969 L279.7421,115.5339 C279.6171,115.0919 279.3861,114.7429 279.0471,114.4869 C278.7071,114.2319 278.2841,114.1039 277.7761,114.1039 C277.0051,114.1039 276.3941,114.3549 275.9391,114.8579 C275.4831,115.3619 275.2571,116.1069 275.2571,117.0969 C275.2571,118.1619 275.4871,118.9639 275.9481,119.4979 C276.4081,120.0319 277.0111,120.2969 277.7581,120.2969 C278.1271,120.2969 278.4971,120.2209 278.8691,120.0729 C279.2391,119.9239 279.5591,119.7429 279.8241,119.5309 L279.8241,118.3899 L277.8071,118.3899 Z M289.7511,118.3899 L289.7511,116.8749 L293.5511,116.8749 L293.5511,120.4559 C293.1811,120.8249 292.6471,121.1489 291.9451,121.4289 C291.2431,121.7079 290.5341,121.8469 289.8171,121.8469 C288.9041,121.8469 288.1071,121.6509 287.4281,121.2579 C286.7491,120.8619 286.2381,120.2989 285.8981,119.5649 C285.5561,118.8299 285.3851,118.0329 285.3851,117.1709 C285.3851,116.2349 285.5751,115.4019 285.9561,114.6739 C286.3381,113.9469 286.8951,113.3879 287.6311,113.0009 C288.1901,112.7019 288.8881,112.5529 289.7211,112.5529 C290.8051,112.5529 291.6531,112.7879 292.2601,113.2549 C292.8701,113.7229 293.2621,114.3699 293.4381,115.1969 L291.6871,115.5339 C291.5631,115.0919 291.3311,114.7429 290.9911,114.4869 C290.6521,114.2319 290.2291,114.1039 289.7211,114.1039 C288.9501,114.1039 288.3381,114.3549 287.8831,114.8579 C287.4281,115.3619 287.2021,116.1069 287.2021,117.0969 C287.2021,118.1619 287.4321,118.9639 287.8931,119.4979 C288.3531,120.0319 288.9561,120.2969 289.7031,120.2969 C290.0721,120.2969 290.4431,120.2209 290.8151,120.0729 C291.1851,119.9239 291.5041,119.7429 291.7701,119.5309 L291.7701,118.3899 L289.7511,118.3899 Z M294.9111,112.7059 L296.6741,112.7059 L296.6741,117.5739 C296.6741,118.3459 296.6961,118.8479 296.7391,119.0769 C296.8141,119.4449 296.9951,119.7409 297.2781,119.9629 C297.5631,120.1859 297.9501,120.2969 298.4431,120.2969 C298.9431,120.2969 299.3211,120.1919 299.5751,119.9809 C299.8291,119.7719 299.9821,119.5119 300.0321,119.2069 C300.0851,118.8989 300.1101,118.3899 300.1101,117.6779 L300.1101,112.7059 L301.8721,112.7059 L301.8721,117.4269 C301.8721,118.5069 301.8251,119.2689 301.7301,119.7159 C301.6341,120.1609 301.4591,120.5359 301.2031,120.8429 C300.9471,121.1489 300.6041,121.3939 300.1771,121.5759 C299.7481,121.7569 299.1871,121.8469 298.4951,121.8469 C297.6621,121.8469 297.0291,121.7499 296.5991,121.5499 C296.1681,121.3509 295.8281,121.0939 295.5781,120.7789 C295.3281,120.4629 295.1631,120.1299 295.0841,119.7819 C294.9691,119.2669 294.9111,118.5069 294.9111,117.5009 L294.9111,112.7059 Z M311.3531,121.6949 L309.4341,121.6949 L308.6711,119.6519 L305.1811,119.6519 L304.4611,121.6949 L302.5911,121.6949 L305.9911,112.7059 L307.8561,112.7059 L311.3531,121.6949 Z M308.1061,118.1389 L306.9031,114.8029 L305.7231,118.1389 L308.1061,118.1389 Z M312.0501,121.6949 L312.0501,112.7059 L313.7661,112.7059 L317.3401,118.7089 L317.3401,112.7059 L318.9791,112.7059 L318.9791,121.6949 L317.2081,121.6949 L313.6891,115.8329 L313.6891,121.6949 L312.0501,121.6949 Z M324.6521,118.3899 L324.6521,116.8749 L328.4501,116.8749 L328.4501,120.4559 C328.0811,120.8249 327.5461,121.1489 326.8451,121.4289 C326.1441,121.7079 325.4341,121.8469 324.7161,121.8469 C323.8031,121.8469 323.0061,121.6509 322.3271,121.2579 C321.6491,120.8619 321.1391,120.2989 320.7971,119.5649 C320.4551,118.8299 320.2841,118.0329 320.2841,117.1709 C320.2841,116.2349 320.4761,115.4019 320.8561,114.6739 C321.2381,113.9469 321.7951,113.3879 322.5301,113.0009 C323.0901,112.7019 323.7871,112.5529 324.6201,112.5529 C325.7041,112.5529 326.5521,112.7879 327.1591,113.2549 C327.7701,113.7229 328.1621,114.3699 328.3371,115.1969 L326.5871,115.5339 C326.4621,115.0919 326.2311,114.7429 325.8911,114.4869 C325.5521,114.2319 325.1291,114.1039 324.6201,114.1039 C323.8501,114.1039 323.2381,114.3549 322.7831,114.8579 C322.3271,115.3619 322.1021,116.1069 322.1021,117.0969 C322.1021,118.1619 322.3321,118.9639 322.7931,119.4979 C323.2531,120.0319 323.8561,120.2969 324.6031,120.2969 C324.9731,120.2969 325.3421,120.2209 325.7141,120.0729 C326.0841,119.9239 326.4041,119.7429 326.6701,119.5309 L326.6701,118.3899 L324.6521,118.3899 Z M332.5291,112.7059 L335.7501,112.7059 C336.4771,112.7059 337.0291,112.7619 337.4111,112.8779 C337.9241,113.0329 338.3631,113.3079 338.7271,113.7069 C339.0931,114.1019 339.3711,114.5879 339.5621,115.1609 C339.7511,115.7369 339.8471,116.4439 339.8471,117.2879 C339.8471,118.0259 339.7571,118.6649 339.5781,119.2009 C339.3611,119.8529 339.0501,120.3829 338.6431,120.7869 C338.3381,121.0939 337.9261,121.3329 337.4051,121.5049 C337.0171,121.6329 336.4961,121.6949 335.8441,121.6949 L332.5291,121.6949 L332.5291,112.7059 Z M334.2911,114.2269 L334.2911,120.1799 L335.6061,120.1799 C336.0981,120.1799 336.4531,120.1519 336.6741,120.0939 C336.9581,120.0199 337.1961,119.8979 337.3851,119.7209 C337.5741,119.5459 337.7271,119.2549 337.8471,118.8529 C337.9641,118.4509 338.0261,117.8999 338.0261,117.2059 C338.0261,116.5109 337.9641,115.9789 337.8471,115.6069 C337.7271,115.2339 337.5601,114.9429 337.3461,114.7359 C337.1311,114.5269 336.8591,114.3859 336.5291,114.3139 C336.2831,114.2549 335.8011,114.2269 335.0811,114.2269 L334.2911,114.2269 Z M348.9631,121.6949 L347.0441,121.6949 L346.2811,119.6519 L342.7911,119.6519 L342.0711,121.6949 L340.2011,121.6949 L343.6021,112.7059 L345.4671,112.7059 L348.9631,121.6949 Z M345.7171,118.1389 L344.5131,114.8029 L343.3341,118.1389 L345.7171,118.1389 Z M355.9641,118.3899 L355.9641,116.8749 L359.7641,116.8749 L359.7641,120.4559 C359.3941,120.8249 358.8601,121.1489 358.1571,121.4289 C357.4561,121.7079 356.7471,121.8469 356.0291,121.8469 C355.1161,121.8469 354.3201,121.6509 353.6411,121.2579 C352.9621,120.8619 352.4511,120.2989 352.1111,119.5649 C351.7691,118.8299 351.5981,118.0329 351.5981,117.1709 C351.5981,116.2349 351.7891,115.4019 352.1691,114.6739 C352.5511,113.9469 353.1091,113.3879 353.8441,113.0009 C354.4041,112.7019 355.1011,112.5529 355.9341,112.5529 C357.0181,112.5529 357.8651,112.7879 358.4731,113.2549 C359.0831,113.7229 359.4761,114.3699 359.6501,115.1969 L357.9001,115.5339 C357.7761,115.0919 357.5441,114.7429 357.2051,114.4869 C356.8641,114.2319 356.4421,114.1039 355.9341,114.1039 C355.1631,114.1039 354.5511,114.3549 354.0961,114.8579 C353.6411,115.3619 353.4151,116.1069 353.4151,117.0969 C353.4151,118.1619 353.6451,118.9639 354.1071,119.4979 C354.5671,120.0319 355.1691,120.2969 355.9151,120.2969 C356.2851,120.2969 356.6551,120.2209 357.0281,120.0729 C357.3981,119.9239 357.7171,119.7429 357.9831,119.5309 L357.9831,118.3899 L355.9641,118.3899 Z M361.1411,121.6949 L361.1411,112.7059 L364.8531,112.7059 C365.7861,112.7059 366.4631,112.7879 366.8861,112.9489 C367.3091,113.1099 367.6481,113.3969 367.9031,113.8089 C368.1561,114.2229 368.2821,114.6939 368.2821,115.2259 C368.2821,115.8999 368.0891,116.4589 367.7051,116.8979 C367.3211,117.3359 366.7431,117.6139 365.9771,117.7269 C366.3601,117.9579 366.6741,118.2089 366.9221,118.4819 C367.1701,118.7569 367.5041,119.2419 367.9251,119.9409 L368.9911,121.6949 L366.8841,121.6949 L365.6091,119.7389 C365.1551,119.0389 364.8471,118.5989 364.6801,118.4179 C364.5141,118.2359 364.3361,118.1119 364.1501,118.0429 C363.9631,117.9759 363.6671,117.9429 363.2611,117.9429 L362.9051,117.9429 L362.9051,121.6949 L361.1411,121.6949 Z M362.9051,116.5069 L364.2081,116.5069 C365.0541,116.5069 365.5821,116.4709 365.7941,116.3979 C366.0041,116.3249 366.1681,116.1969 366.2881,116.0169 C366.4061,115.8379 366.4671,115.6129 366.4671,115.3419 C366.4671,115.0399 366.3881,114.7969 366.2321,114.6109 C366.0741,114.4239 365.8531,114.3069 365.5671,114.2569 C365.4241,114.2379 364.9951,114.2269 364.2791,114.2269 L362.9051,114.2269 L362.9051,116.5069 Z M369.3341,117.2559 C369.3341,116.3399 369.4661,115.5709 369.7331,114.9499 C369.9321,114.4939 370.2021,114.0809 370.5461,113.7159 C370.8901,113.3549 371.2661,113.0859 371.6741,112.9089 C372.2191,112.6709 372.8451,112.5529 373.5571,112.5529 C374.8431,112.5529 375.8721,112.9639 376.6451,113.7859 C377.4171,114.6059 377.8031,115.7489 377.8031,117.2119 C377.8031,118.6649 377.4191,119.7989 376.6531,120.6199 C375.8861,121.4379 374.8621,121.8469 373.5811,121.8469 C372.2821,121.8469 371.2491,121.4399 370.4831,120.6259 C369.7171,119.8089 369.3341,118.6859 369.3341,117.2559 L369.3341,117.2559 Z M371.1501,117.1959 C371.1501,118.2129 371.3791,118.9849 371.8341,119.5099 C372.2921,120.0359 372.8711,120.2969 373.5741,120.2969 C374.2761,120.2969 374.8541,120.0379 375.3051,119.5139 C375.7541,118.9929 375.9801,118.2129 375.9801,117.1709 C375.9801,116.1399 375.7601,115.3729 375.3231,114.8639 C374.8841,114.3569 374.3011,114.1039 373.5741,114.1039 C372.8471,114.1039 372.2621,114.3619 371.8171,114.8749 C371.3731,115.3869 371.1501,116.1589 371.1501,117.1959 L371.1501,117.1959 Z M378.9131,112.7059 L380.6761,112.7059 L380.6761,117.5739 C380.6761,118.3459 380.6981,118.8479 380.7411,119.0769 C380.8171,119.4449 380.9971,119.7409 381.2791,119.9629 C381.5651,120.1859 381.9531,120.2969 382.4451,120.2969 C382.9461,120.2969 383.3231,120.1919 383.5771,119.9809 C383.8311,119.7719 383.9841,119.5119 384.0341,119.2069 C384.0871,118.8989 384.1121,118.3899 384.1121,117.6779 L384.1121,112.7059 L385.8741,112.7059 L385.8741,117.4269 C385.8741,118.5069 385.8271,119.2689 385.7331,119.7159 C385.6371,120.1609 385.4621,120.5359 385.2051,120.8429 C384.9491,121.1489 384.6061,121.3939 384.1791,121.5759 C383.7501,121.7569 383.1891,121.8469 382.4981,121.8469 C381.6641,121.8469 381.0321,121.7499 380.6011,121.5499 C380.1701,121.3509 379.8301,121.0939 379.5801,120.7789 C379.3301,120.4629 379.1661,120.1299 379.0861,119.7819 C378.9711,119.2669 378.9131,118.5069 378.9131,117.5009 L378.9131,112.7059 Z M387.4811,121.6949 L387.4811,112.7059 L390.3091,112.7059 C391.3801,112.7059 392.0791,112.7529 392.4041,112.8419 C392.9051,112.9759 393.3251,113.2689 393.6631,113.7209 C394.0001,114.1739 394.1691,114.7579 394.1691,115.4709 C394.1691,116.0229 394.0711,116.4879 393.8761,116.8629 C393.6821,117.2389 393.4361,117.5349 393.1351,117.7499 C392.8361,117.9639 392.5301,118.1059 392.2221,118.1739 C391.8011,118.2599 391.1921,118.3039 390.3921,118.3039 L389.2431,118.3039 L389.2431,121.6949 L387.4811,121.6949 Z M389.2431,114.2269 L389.2431,116.7769 L390.2071,116.7769 C390.9031,116.7769 391.3671,116.7309 391.6021,116.6359 C391.8361,116.5429 392.0191,116.3949 392.1531,116.1949 C392.2851,115.9939 392.3521,115.7609 392.3521,115.4959 C392.3521,115.1699 392.2591,114.8989 392.0711,114.6859 C391.8861,114.4739 391.6491,114.3409 391.3641,114.2879 C391.1531,114.2469 390.7301,114.2269 390.0961,114.2269 L389.2431,114.2269 Z" id="Fill-48" fill="#FFFFFE" mask="url(#mask-2)"></path>
                <polygon id="Fill-49" fill="#D8232A" mask="url(#mask-2)" points="238.052 120.288 238.935 120.288 238.935 114.114 238.052 114.114"></polygon>
            </g>
        </g>
    </g>
</svg>