<?xml version="1.0" encoding="UTF-8"?>
<svg width="218px" height="66px" viewBox="0 0 218 66" version="1.1" xmlns="http://www.w3.org/2000/svg" xmlns:xlink="http://www.w3.org/1999/xlink">
    <!-- Generator: Sketch 60.1 (88133) - https://sketch.com -->
    <title>天安数码城</title>
    <desc>Created with Sketch.</desc>
    <g id="Page-1" stroke="none" stroke-width="1" fill="none" fill-rule="evenodd">
        <g id="天安数码城" transform="translate(0.000000, -1.000000)" fill-rule="nonzero">
            <polygon id="Path" fill="#E70012" points="37.92 0.95 0.22 66.29 23.14 66.29 37.92 41.15 52.76 66.29 75.69 66.29"></polygon>
            <polygon id="Path" fill="#FFFFFF" points="37.95 46.85 49.23 66.29 26.71 66.29"></polygon>
            <polygon id="Path" fill="#FFFFFF" points="53.49 21.35 64.89 0.95 102.66 66.29 79.23 66.29"></polygon>
            <path d="M112.24,54.81 L122.54,54.81 L122.54,56.28 L118.49,56.28 L118.49,58.63 L123.28,58.63 L123.28,60.11 L118.83,60.11 L118.83,60.52 C118.83,60.52 119.83,62.96 123.47,64.74 L122.66,66.34 C122.66,66.34 120.06,65.55 117.42,61.55 C117.42,61.55 115.29,65.45 112.12,66.34 L111.26,64.8 C113.254643,63.9377785 114.91725,62.4540595 116,60.57 L116,60.08 L111.66,60.08 L111.66,58.66 L116.46,58.66 L116.46,56.26 L112.2,56.26 L112.24,54.81 Z" id="Path" stroke="#FFFFFF" fill="#FFFFFF"></path>
            <rect id="Rectangle" stroke="#FFFFFF" fill="#FFFFFF" x="156.39" y="61.93" width="3.93" height="1.39"></rect>
            <path d="M164.75,54.07 L166.27,54.07 L166.27,56.42 L167.19,56.42 L167.19,57.94 L166.29,57.94 L166.29,62.13 L167.57,62.13 L167.57,55.13 L171.45,55.13 L171.45,53.6 L172.92,53.6 L172.92,55.14 L174.08,55.14 L174.08,54 L175.6,54 L175.6,56.53 L173,56.53 L173,60 L173.1,61.34 L173.48,61.34 C173.828579,60.2726404 174.027144,59.1620192 174.07,58.04 L175.58,58.04 L175.48,59.58 C175.321643,60.980494 174.81261,62.3184248 174,63.47 C174.477796,64.1411667 175.192658,64.6058272 176,64.77 L176.23,64.77 L175.69,66.34 C174.670171,66.1166641 173.758784,65.5479304 173.11,64.73 L171.21,66.16 L170.38,64.96 C171.06393,64.5454278 171.683779,64.0333784 172.22,63.44 L171.66,60.64 L171.51,56.75 L169,56.75 L169,58.17 L171.35,58.17 L171.35,62.44 C171.35,62.44 170.86,64.2 169.9,64.19 L168.9,64.19 C168.869978,63.7805496 168.869978,63.3694504 168.9,62.96 C168.97,62.9 169.9,63.12 169.99,62.53 C170.08,61.94 169.99,59.44 169.99,59.44 L168.84,59.44 L168.84,62.36 C168.84,62.36 168.29,65.46 167.7,66.18 C167.238703,65.953378 166.791251,65.6995992 166.36,65.42 C166.730593,64.8838874 166.989094,64.2784509 167.12,63.64 L163.69,64.43 L163.69,62.77 L164.77,62.59 L164.77,57.92 L163.77,57.92 L163.77,56.42 L164.77,56.42 L164.75,54.07 Z" id="Path" stroke="#FFFFFF" fill="#FFFFFF"></path>
            <path d="M151.13,56 L152.69,56 L152.43,57.09 C151.933776,58.7098093 151.199047,60.2466718 150.25,61.65 C150.25,61.65 151.4,62.59 151.4,62.65 C151.4,62.71 152.01,61.72 152.01,61.72 L152.2,61.72 L152.2,65.67 L155.87,65.67 L155.87,58.29 L153.5,58.29 C153.62,58.14 154.16,56.01 154.16,56.01 L156,56.01 L156,54.55 L151.12,54.55 L151.13,56 Z M153.52,59.66 L154.42,59.66 L154.42,64.39 L153.52,64.39 L153.52,59.66 Z" id="Shape" stroke="#FFFFFF" fill="#FFFFFF"></path>
            <path d="M161.24,59.42 L161.8,54.29 L156.48,54.29 L156.48,55.79 L160.12,55.79 L159.75,59.37 L158.16,59.37 L158.32,56.47 L156.8,56.47 L156.56,60.82 L160.89,60.82 L160.89,64.38 C160.823154,64.4922653 160.71577,64.5745931 160.59,64.61 L158.09,64.61 L158.09,65.92 L161.33,65.92 C161.88,65.92 162.44,64.66 162.44,64.66 L162.44,59.42 L161.24,59.42 Z" id="Path" stroke="#FFFFFF" fill="#FFFFFF"></path>
            <path d="M136.46,60.19 L136.46,58.6 L130.21,58.6 L131.41,56.53 L134.79,56.53 L134.79,57.68 L136.23,57.68 L136.23,55.28 L131.43,55.28 L131.43,54.11 L129.5,54.11 L129.5,55.28 L124.83,55.28 L124.83,57.65 L126.47,57.65 L126.47,56.53 L129.47,56.53 L129.47,56.92 L128.47,58.58 L124.68,58.58 L124.68,60.11 L127.43,60.11 L127.43,60.46 L126.26,62.32 L128.95,63.32 L128.95,63.65 C127.671162,64.1358219 126.317804,64.3963433 124.95,64.42 L124.95,66 L126.31,66 C127.907808,65.7977908 129.439274,65.2371646 130.79,64.36 L131.3,64.36 L135.61,66.46 L136.3,64.88 L132.53,63.08 C133.334965,62.2543877 133.940406,61.2555806 134.3,60.16 L136.46,60.19 Z M132.46,60.55 C132.46,60.55 131.46,62.33 130.97,62.46 L130.47,62.46 L128.58,61.58 L129.36,60.13 L132.46,60.13 L132.46,60.55 Z" id="Shape" stroke="#FFFFFF" fill="#FFFFFF"></path>
            <path d="M148,62.92 L148.12,62.7 C148.764464,60.9694046 149.226958,59.1764016 149.5,57.35 L150,57.35 L150,55.88 L146.6,55.88 C146.716459,55.2951549 146.799924,54.7042213 146.85,54.11 L145.47,54.11 C145.30033,55.9589488 144.734141,57.7496078 143.81,59.36 L142.72,58 L141.72,58 L141.72,57.7 L144.28,57.7 L144.28,56.4 L143.12,56.4 L143.12,56.08 L144.34,54.33 L142.79,54.33 L142,55.77 L141.78,55.77 L141.78,54.11 L140.47,54.11 L140.47,55.77 L139.24,54.34 L137.77,54.34 L139,56 L140.51,56 L140.51,56.38 L137.88,56.38 L137.88,57.74 L139.32,57.74 L139.32,58.16 L137.74,60.16 L139.21,60.16 L140.21,58.89 L140.54,58.89 L140.54,59.89 C140.336527,60.0945638 140.108056,60.2726368 139.86,60.42 L137.68,60.42 L137.68,61.66 L138.85,61.66 L138.85,62.1 C138.85,62.1 137.93,63 137.93,63.1 C137.93,63.2 140,64.27 140,64.27 C139.349319,64.64434 138.619619,64.8601667 137.87,64.9 L137.87,66.34 L138.87,66.34 C138.96,66.34 141.45,65.04 141.45,65.04 L141.73,65.04 L143.96,66.34 L144.45,65.59 L144.98,66.26 L147.27,64.26 L149.5,66.32 L150.35,64.97 L148,62.92 Z M142.59,62.16 L141.46,63.35 C141.46,63.35 140.01,62.71 140.01,62.66 C140.01,62.61 140.56,61.86 140.56,61.86 L142.56,61.86 L142.59,62.16 Z M146.16,63.16 C145.531216,63.7666942 144.863099,64.331253 144.16,64.85 C143.93,65.02 142.7,63.85 142.7,63.85 C143.527372,63.2400115 144.120391,62.3646018 144.38,61.37 L144.38,60.49 L141.68,60.49 L141.68,58.91 L142.11,58.91 L143.11,60.22 L144.92,60.22 L146.23,62.86 L146.16,63.16 Z M147.88,58.89 C147.729979,59.7521769 147.481694,60.5943324 147.14,61.4 C147.046935,61.4100032 146.953065,61.4100032 146.86,61.4 C146.533833,60.7510209 146.246656,60.0831688 146,59.4 C146,59.03 146,57.46 146,57.46 L147.86,57.46 L147.88,58.89 Z" id="Shape" stroke="#FFFFFF" fill="#FFFFFF"></path>
            <path d="M112.28,21.76 L120.8,21.76 L120.8,23.28 L112.28,23.28 L112.28,21.76 Z M115.69,22.69 L117.39,22.69 L117.39,33.12 L115.69,33.12 L115.69,22.69 Z" id="Shape" stroke="#FFFFFF" fill="#FFFFFF"></path>
            <path d="M115.22,49.66 L114.22,49.13 C113.552244,48.805454 112.995516,48.2904811 112.62,47.65 C112.232951,46.9718503 112.039262,46.2005535 112.06,45.42 L112.06,42.31 C112.039262,41.5294465 112.232951,40.7581497 112.62,40.08 C112.997688,39.4387889 113.553556,38.9211372 114.22,38.59 C114.959471,38.2253685 115.775679,38.0436079 116.6,38.06 C117.312036,38.0509996 118.01778,38.1941942 118.67,38.48 C119.28106,38.7500737 119.821703,39.1572663 120.25,39.67 C120.673884,40.1815679 120.965752,40.7893411 121.1,41.44 L119.2,41.44 C119.079056,41.0867102 118.884811,40.7629697 118.63,40.49 C118.36449,40.2137291 118.044362,39.99577 117.69,39.85 C117.33579,39.6992516 116.954953,39.621044 116.57,39.62 C116.081513,39.6078672 115.59851,39.7251681 115.17,39.96 C114.773951,40.1745866 114.450339,40.5016786 114.24,40.9 C114.008235,41.3332981 113.89119,41.8186908 113.9,42.31 L113.9,45.42 C113.89251,45.9111634 114.009476,46.3962301 114.24,46.83 C114.450339,47.2283214 114.773951,47.5554134 115.17,47.77 C115.60109,47.9970529 116.082887,48.1106195 116.57,48.1 C116.953321,48.1021973 117.333512,48.0309116 117.69,47.89 C118.043426,47.7516954 118.363724,47.5404349 118.63,47.27 C118.893162,46.9840494 119.08805,46.6421416 119.2,46.27 L121.07,46.27 C120.936775,46.9259416 120.641078,47.5379653 120.21,48.05 C119.783393,48.562044 119.242087,48.9663105 118.63,49.23 C117.980859,49.5144127 117.278672,49.657577 116.57,49.65 L115.22,49.66 Z" id="Path" stroke="#FFFFFF" fill="#FFFFFF"></path>
            <polygon id="Path" stroke="#FFFFFF" fill="#FFFFFF" points="128 44.92 128 49.54 126.41 49.54 126.41 44.92 123 38.18 124.78 38.18 127.26 43.31 129.75 38.18 131.52 38.18"></polygon>
            <path d="M134.45,38.18 L136.16,38.18 L136.16,49.54 L134.45,49.54 L134.45,38.18 Z M135.45,48.06 L138.75,48.06 C139.416314,48.1148781 140.082574,47.9535729 140.65,47.6 C141.049918,47.2947928 141.274244,46.8124922 141.25,46.31 L141.25,46.31 C141.256715,45.9639656 141.181321,45.6212664 141.03,45.31 C140.880358,45.0308837 140.645674,44.8067078 140.36,44.67 C139.983479,44.5129203 139.577795,44.4379199 139.17,44.45 L135.45,44.45 L135.45,43 L139.17,43 C139.680634,43.04147 140.188915,42.8957392 140.6,42.59 C141.27001,41.883293 141.247731,40.7693522 140.55,40.09 C140.074443,39.7760408 139.508323,39.6283573 138.94,39.67 L135.45,39.67 L135.45,38.18 L139.25,38.18 C139.936603,38.1567185 140.619782,38.2865225 141.25,38.56 C141.748587,38.7789017 142.165132,39.1499415 142.44,39.62 C142.711536,40.1230196 142.846032,40.6885953 142.83,41.26 C142.832619,41.6399334 142.750637,42.0156862 142.59,42.36 C142.421514,42.7083295 142.166784,43.0078089 141.85,43.23 C141.480508,43.4877499 141.055875,43.6555484 140.61,43.72 C141.070272,43.7763854 141.509735,43.9446175 141.89,44.21 C142.240304,44.4719864 142.521709,44.8151628 142.71,45.21 C142.897985,45.5996711 142.99379,46.0273712 142.99,46.46 L142.99,46.46 C143.00349,47.0298861 142.854335,47.5918204 142.56,48.08 C142.258327,48.5572713 141.823892,48.9360989 141.31,49.17 C140.711775,49.4331331 140.063413,49.5628054 139.41,49.55 L135.47,49.55 L135.45,48.06 Z" id="Shape" stroke="#FFFFFF" fill="#FFFFFF"></path>
            <path d="M146.27,38.18 L147.93,38.18 L147.93,49.54 L146.27,49.54 L146.27,38.18 Z M147.08,38.18 L153.9,38.18 L153.9,39.7 L147.08,39.7 L147.08,38.18 Z M147.08,43.18 L153,43.18 L153,44.7 L147.08,44.7 L147.08,43.18 Z M147.08,48.07 L153.9,48.07 L153.9,49.58 L147.08,49.58 L147.08,48.07 Z" id="Shape" stroke="#FFFFFF" fill="#FFFFFF"></path>
            <path d="M173.17,38.18 L174.91,38.18 L174.91,49.54 L173.17,49.54 L173.17,38.18 Z M174.07,43.62 L178,43.62 C178.348555,43.6285323 178.693284,43.5457972 179,43.38 C179.286301,43.2240993 179.516971,42.9829434 179.66,42.69 C179.820476,42.3812725 179.902878,42.0379325 179.9,41.69 C179.900508,41.3423421 179.81824,40.9995584 179.66,40.69 C179.510898,40.4013407 179.281751,40.1617779 179,40 C178.693284,39.8342028 178.348555,39.7514677 178,39.76 L174.06,39.76 L174.06,38.18 L178,38.18 C178.672816,38.1668161 179.338705,38.3178423 179.94,38.62 C180.487478,38.8885022 180.943275,39.3129849 181.25,39.84 C181.863378,40.9793587 181.863378,42.3506413 181.25,43.49 C180.937423,44.0123114 180.483202,44.4353267 179.94,44.71 C179.335426,45.0008056 178.670717,45.1447117 178,45.13 L174.12,45.13 L174.07,43.62 Z" id="Shape" stroke="#FFFFFF" fill="#FFFFFF"></path>
            <path d="M186.39,38.21 L187.87,38.21 L192.4,49.54 L190.54,49.54 L187.13,40.4 L183.72,49.54 L181.86,49.54 L186.39,38.21 Z M184,45.54 L190.47,45.54 L190.47,47.06 L184,47.06 L184,45.54 Z" id="Shape" stroke="#FFFFFF" fill="#FFFFFF"></path>
            <path d="M157.15,21.77 L158.63,21.77 L163.16,33.1 L161.3,33.1 L157.89,24 L154.48,33.14 L152.61,33.14 L157.15,21.77 Z M154.71,29.1 L161.18,29.1 L161.18,30.62 L154.71,30.62 L154.71,29.1 Z" id="Shape" stroke="#FFFFFF" fill="#FFFFFF"></path>
            <path d="M132.57,21.77 L134,21.77 L138.54,33.1 L136.68,33.1 L133.31,24 L129.89,33.14 L128,33.14 L132.57,21.77 Z M130.12,29.1 L136.6,29.1 L136.6,30.62 L130.12,30.62 L130.12,29.1 Z" id="Shape" stroke="#FFFFFF" fill="#FFFFFF"></path>
            <path d="M195,38.17 L196.65,38.17 L196.65,49.54 L195,49.54 L195,38.17 Z M195.72,43.17 L199.72,43.17 C200.015115,43.1770957 200.306251,43.1008457 200.56,42.95 C200.805014,42.8046513 201.000253,42.5884936 201.12,42.33 C201.386544,41.7421357 201.386544,41.0678643 201.12,40.48 C201.000253,40.2215064 200.805014,40.0053487 200.56,39.86 C200.30668,39.7081326 200.015242,39.6318037 199.72,39.64 L195.72,39.64 L195.72,38.17 L199.66,38.17 C200.281171,38.1586803 200.895686,38.2994352 201.45,38.58 C201.948929,38.8410234 202.362077,39.2402839 202.64,39.73 C203.212456,40.8087595 203.212456,42.1012405 202.64,43.18 C202.35629,43.6686995 201.940325,44.0673335 201.44,44.33 C200.889246,44.610512 200.277972,44.7513112 199.66,44.74 L195.72,44.74 L195.72,43.17 Z M198.92,44.33 L200.6,44 L203.6,49.51 L201.65,49.51 L198.92,44.33 Z" id="Shape" stroke="#FFFFFF" fill="#FFFFFF"></path>
            <path d="M157.27,38.09 L158.92,38.09 L158.92,49.45 L157.27,49.45 L157.27,38.09 Z M157.99,43.09 L161.99,43.09 C162.281929,43.0968406 162.569787,43.020541 162.82,42.87 C163.065014,42.7246513 163.260253,42.5084936 163.38,42.25 C163.518926,41.9636176 163.587492,41.6482125 163.58,41.33 C163.584642,41.0088523 163.516254,40.6908476 163.38,40.4 C163.258082,40.1460805 163.067572,39.9313237 162.83,39.78 C162.57668,39.6281326 162.285242,39.5518037 161.99,39.56 L157.99,39.56 L157.99,38.09 L161.93,38.09 C162.550457,38.0743575 163.165221,38.2117348 163.72,38.49 C164.223979,38.7475593 164.641238,39.1474325 164.92,39.64 C165.207198,40.170663 165.351906,40.766722 165.34,41.37 C165.352006,41.9701073 165.207238,42.5629639 164.92,43.09 C164.63629,43.5786995 164.220325,43.9773335 163.72,44.24 C163.165686,44.5205648 162.551171,44.6613197 161.93,44.65 L158,44.65 L157.99,43.09 Z M161.19,44.26 L162.83,43.9 L165.83,49.41 L163.83,49.41 L161.19,44.26 Z" id="Shape" stroke="#FFFFFF" fill="#FFFFFF"></path>
            <polygon id="Path" stroke="#FFFFFF" fill="#FFFFFF" points="125.39 33.12 123.8 33.12 123.8 21.76 125.39 21.76"></polygon>
            <polygon id="Path" stroke="#FFFFFF" fill="#FFFFFF" points="165.85 21.76 167.41 21.76 173.41 30.54 173.21 30.75 173.21 21.75 174.91 21.75 174.91 33.11 173.33 33.11 167.33 24.46 167.53 24.26 167.53 33.11 165.83 33.11"></polygon>
            <polygon id="Path" stroke="#FFFFFF" fill="#FFFFFF" points="140.89 21.76 142.45 21.76 148.45 30.54 148.24 30.75 148.24 21.75 149.94 21.75 149.94 33.11 148.37 33.11 142.37 24.46 142.57 24.26 142.57 33.11 140.87 33.11"></polygon>
            <polygon id="Path" stroke="#FFFFFF" fill="#FFFFFF" points="205.86 37.71 208.89 37.71 208.89 43.2 213.34 37.71 216.53 37.71 211.92 43.61 216.53 49.84 213.09 49.84 208.89 44.39 208.89 49.84 205.86 49.84"></polygon>
        </g>
    </g>
</svg>