<svg id="图层_3" data-name="图层 3" xmlns="http://www.w3.org/2000/svg" viewBox="0 0 1000.17 272.35"><defs><style>.cls-1{fill:#fff;}</style></defs><title>a4tzw-trnq6</title><rect class="cls-1" x="105.07" y="10.17" width="44.41" height="44.41"/><rect class="cls-1" x="199.37" y="39.52" width="44.41" height="44.41"/><polygon class="cls-1" points="196.63 39.52 152.22 10.37 152.22 54.78 196.63 83.94 196.63 39.52"/><rect class="cls-1" x="105.07" y="100.57" width="44.41" height="44.41"/><rect class="cls-1" x="199.37" y="129.91" width="44.41" height="44.41"/><polygon class="cls-1" points="196.63 129.91 152.22 100.76 152.22 145.17 196.63 174.33 196.63 129.91"/><rect class="cls-1" x="105.07" y="191.79" width="44.41" height="44.41"/><rect class="cls-1" x="199.37" y="221.14" width="44.41" height="44.41"/><rect class="cls-1" x="246.15" y="175.56" width="44.28" height="44.28"/><rect class="cls-1" x="291.74" y="129.98" width="44.28" height="44.28"/><rect class="cls-1" x="59.17" y="146.41" width="44.28" height="44.28"/><rect class="cls-1" x="12.8" y="100.63" width="44.28" height="44.28"/><polygon class="cls-1" points="196.63 221.14 152.22 191.99 152.22 236.4 196.63 265.56 196.63 221.14"/><path class="cls-1" d="M389.15,22.5V50.67H441.2v18.2H389.15V97.43h48.33s-4.5,16.44-19.67,23.09A65.3,65.3,0,0,1,389,126l.16,30.72s17.42,2.74,42.85-10.18,26.61-23.28,26.61-23.28,8.61,14.28,29.15,24.26S526.3,157,526.3,157V125.41s-16.14-1.11-29.15-7.82-18.78-20.74-18.78-20.74H526.3v-29H474.65v-18H526.3V22.5Z"/><path class="cls-1" d="M626.87,19.57,625.3,25h54.27V63.65H651.65V51.91H618A63.48,63.48,0,0,0,614.87,61a65.18,65.18,0,0,1-2.61,8.09h67.31V95.74H665.74s-1.83,4.43-4.44,9.65-9.39,13-9.39,13l27.66,7.83v30L628.7,139.83s-11.74,6.26-35.22,12.52-50.87,3.13-50.87,3.13V128.87s9.65.26,21.65,0a91.24,91.24,0,0,0,22.7-3.65l-32.87-12,10.69-16.7H542.61V69.13h37.3l6.26-17.74H570.78v13H542.61V25H595l.92-5.75ZM596.22,99.91c-1.31,1.7-2,2.61-2,2.61l27.13,8.09s2.87-3,6.13-6.26A31.16,31.16,0,0,0,633,95.74H598.43A18.55,18.55,0,0,1,596.22,99.91Z"/><rect class="cls-1" x="698.48" y="21.52" width="132.26" height="27.39"/><path class="cls-1" d="M833.87,65H694.17V93.52h23.48l-12.52,31.7h-11v28.95h44.22s21.91-.78,35.61-2.74a130.73,130.73,0,0,0,25-6.26l4.31,11.09h30.52l-18-53.09H785.74L790,117a50.05,50.05,0,0,1-12.91,5.09c-7.83,2-37.56,2.74-37.56,2.74L751.7,93.52h82.17Z"/><path class="cls-1" d="M871.7,20.09A20.78,20.78,0,0,1,862.57,30c-6.79,3.65-15.4,3.65-15.4,3.65V60.13s17.09,0,35.22-12.79S901,20.09,901,20.09Z"/><path class="cls-1" d="M928.83,19.43H959s1.56,5.74,8.34,9.53,16.18,4,16.18,4V60.13s-19.89-2.74-34.57-12.52-20.08-27.52-20.08-27.52"/><path class="cls-1" d="M901,35.74h29s2.09,12.65,16.57,21.91,36.91,11.48,36.91,11.48v29l-5.87-1.18v56.35H854.09V97.83l-6.92.88V69.85s19.18.85,35.74-11.42S901,35.74,901,35.74Zm15.1,30.78s-1.66,6.26-13.4,13.6A149.57,149.57,0,0,1,882.39,91h68.28S936.39,84.52,930,79.83,916.14,66.52,916.14,66.52ZM948.65,116H883.7v12.65h64.95Z"/><path class="cls-1" d="M450.68,210.33h-40.3c-13.5,0-24.9,11.93-24.9,24.89s6.41,25.1,23.14,25.1h42.06c2.84,0,4-3,4-6s-1.47-5.09-3.72-5.09H414c-5.58,0-12.52-5.18-12.52-13.5s5.57-14.67,13.4-14.67h35.61c4,0,4.21-3.82,4.21-5.58S453.85,210.33,450.68,210.33Z"/><path class="cls-1" d="M461.54,213.55v43.54a3.23,3.23,0,0,0,3.23,3.23h38.55a3.23,3.23,0,0,0,3.22-3.23V251.9a3.23,3.23,0,0,0-3.22-3.23H482.81a2.07,2.07,0,0,1-2.08-2.09c0-6.35.14-25.47,0-33.08a3.22,3.22,0,0,0-3.23-3.17H464.77A3.23,3.23,0,0,0,461.54,213.55Z"/><path class="cls-1" d="M563.18,260.32h-40.1a9.88,9.88,0,0,1-9.88-9.89V220.21a9.88,9.88,0,0,1,9.88-9.88h40.1a9.88,9.88,0,0,1,9.89,9.88v30.22A9.89,9.89,0,0,1,563.18,260.32ZM557,247.4V222.75a3.42,3.42,0,0,0-3.42-3.42H533.25a3.42,3.42,0,0,0-3.42,3.42V247.4a3.43,3.43,0,0,0,3.42,3.43H553.6A3.43,3.43,0,0,0,557,247.4Z"/><path class="cls-1" d="M580.7,213.75V245.1a15.22,15.22,0,0,0,15.21,15.22h33.94a15.23,15.23,0,0,0,15.22-15.22V213.75a3.43,3.43,0,0,0-3.43-3.42H629.51a3.42,3.42,0,0,0-3.42,3.42v31.7a3.43,3.43,0,0,1-3.43,3.42H602.71a3.43,3.43,0,0,1-3.43-3.42v-31.7a3.42,3.42,0,0,0-3.42-3.42H584.12A3.42,3.42,0,0,0,580.7,213.75Z"/><path class="cls-1" d="M653.61,213.2v43.53a3.59,3.59,0,0,0,3.59,3.59h40.25a22.42,22.42,0,0,0,22.42-22.42v-5.16a22.41,22.41,0,0,0-22.42-22.41H683a5.63,5.63,0,0,0-5.64,5.64h0a5.64,5.64,0,0,0,5.64,5.64h9.82a11.8,11.8,0,0,1,11.8,11.8v3.94a11.8,11.8,0,0,1-11.89,11.8c-7-.06-15.24,0-19.13.08a2.21,2.21,0,0,1-2.24-2.22V213.19a3.58,3.58,0,0,0-3.58-3.58H657.2A3.58,3.58,0,0,0,653.61,213.2Z"/><path class="cls-1" d="M966.59,208.56h15.48a2.09,2.09,0,0,1,1.44,3.59L960.65,234l25.51,23.92a2.08,2.08,0,0,1-1.43,3.6H966.18a2,2,0,0,1-1.43-.57l-25.81-24.42a2.08,2.08,0,0,1,0-3l23.88-23.42A5.44,5.44,0,0,1,966.59,208.56Z"/><path class="cls-1" d="M738.52,213.26a4.69,4.69,0,0,1,4.7-4.69h48.13s4.69-.27,10,4.43,5,6.39,5,6.39l6.14-9.21a1.28,1.28,0,0,1,1.06-.57h17.32a1.29,1.29,0,0,1,1.14.69L851.41,248a1.28,1.28,0,0,0,2.42-.59V213.72a5.15,5.15,0,0,1,5.15-5.16h44.67a17.5,17.5,0,0,1,8.48,3.53c3.91,3.13,6,5.08,6,5.08V211.3a2.74,2.74,0,0,1,2.74-2.74h13a2.74,2.74,0,0,1,2.74,2.74v46.77a3.46,3.46,0,0,1-3.45,3.45h-30a4.1,4.1,0,0,1-2.88-1.19l-23.16-23.16a3.27,3.27,0,0,1,2.31-5.58h18.72a5.16,5.16,0,0,0,5.15-5.16v-.71a5.15,5.15,0,0,0-5.15-5.15H871.83v39.67a1.28,1.28,0,0,1-1.28,1.28H839.48a1.28,1.28,0,0,1-1.14-.7l-17-33.34L804,260.19a1.28,1.28,0,0,1-1.13.68H787.61a1.45,1.45,0,0,1-1.28-2.12l8.08-15.44a1.28,1.28,0,0,0-1.13-1.88H759.89a1.28,1.28,0,0,0-1.28,1.28V259.2a1.28,1.28,0,0,1-1.28,1.28H739.8a1.28,1.28,0,0,1-1.28-1.28V237a5.47,5.47,0,0,1,5.48-5.47h42.91a5.35,5.35,0,0,0,5.35-5.35h0a5.35,5.35,0,0,0-5.35-5.35H743.22a4.69,4.69,0,0,1-4.7-4.69ZM904.7,241.34l13.4,12.71v-20a13.6,13.6,0,0,1-5.58,5.57A15.27,15.27,0,0,1,904.7,241.34Z"/></svg>