<svg width="128" height="128" viewBox="0 0 128 128" fill="none" xmlns="http://www.w3.org/2000/svg">
<rect width="128" height="128" fill="#E16919"/>
<path fill-rule="evenodd" clip-rule="evenodd" d="M66.0731 70.8041C68.6 70.8041 71.0702 71.5534 73.1712 72.9572C75.2722 74.3611 76.9098 76.3565 77.8768 78.691C78.8438 81.0255 79.0968 83.5944 78.6038 86.0728C78.1109 88.5511 76.894 90.8276 75.1073 92.6144C73.3205 94.4012 71.044 95.618 68.5656 96.1109C66.0873 96.6039 63.5184 96.3509 61.1839 95.3839C58.8494 94.4169 56.854 92.7793 55.4501 90.6783C54.0463 88.5773 53.2969 86.1071 53.2969 83.5802C53.2969 81.9025 53.6274 80.2411 54.2695 78.691C54.9115 77.1409 55.8526 75.7325 57.039 74.5461C58.2254 73.3597 59.6338 72.4186 61.1839 71.7766C62.734 71.1345 64.3953 70.8041 66.0731 70.8041ZM30.6741 60.9573C34.0761 60.9534 37.4351 61.7183 40.5 63.195C43.565 64.6716 46.2565 66.8219 48.3736 69.485C51.9315 65.0085 57.0526 62.0454 62.7067 61.1917C68.3608 60.3381 74.1284 61.6572 78.8493 64.8838V36.862L88.696 27V64.8991C93.6103 61.5337 99.6534 60.2421 105.514 61.3045C111.375 62.3669 116.58 65.6977 120 70.574L112.837 77.7366C111.528 75.1868 109.399 73.1513 106.793 71.9574C104.188 70.7635 101.256 70.4806 98.4699 71.1541C95.6838 71.8276 93.2052 73.4184 91.4324 75.6708C89.6596 77.9232 88.6958 80.7062 88.6958 83.5726C88.6958 86.4389 89.6596 89.222 91.4324 91.4744C93.2052 93.7267 95.6838 95.3176 98.4699 95.9911C101.256 96.6646 104.188 96.3816 106.793 95.1877C109.399 93.9938 111.528 91.9584 112.837 89.4085L120 96.5712C117.979 99.45 115.314 101.818 112.218 103.488C109.121 105.157 105.679 106.083 102.163 106.19C98.6466 106.297 95.154 105.583 91.9618 104.105C88.7696 102.627 85.9657 100.426 83.7727 97.6755C80.8499 101.347 76.8576 104.019 72.3488 105.321C67.8401 106.623 63.038 106.49 58.608 104.941C54.1779 103.393 50.3391 100.505 47.6233 96.6776C44.9074 92.8503 43.4491 88.2732 43.4502 83.5802C43.4566 80.4695 42.3291 77.463 40.2788 75.1235C38.2285 72.7841 35.396 71.2719 32.3113 70.87C29.2266 70.4681 26.1012 71.204 23.5199 72.9401C20.9387 74.6762 19.0785 77.2934 18.2876 80.3019C17.4967 83.3104 17.8291 86.5041 19.2228 89.2852C20.6165 92.0663 22.9759 94.2442 25.8594 95.4113C28.7429 96.5785 31.9529 96.6549 34.8887 95.6262C37.8244 94.5975 40.2847 92.5343 41.8091 89.8226C42.7297 93.3703 44.4153 96.6735 46.7478 99.5006C44.1268 102.155 40.8905 104.121 37.3265 105.223C33.7625 106.325 29.9814 106.53 26.3194 105.818C22.6574 105.106 19.228 103.501 16.3363 101.144C13.4445 98.7871 11.18 95.7522 9.7441 92.3091C8.30822 88.8659 7.74549 85.1214 8.10592 81.4083C8.46635 77.6952 9.73878 74.1288 11.8101 71.0262C13.8814 67.9235 16.6873 65.3808 19.9783 63.6242C23.2694 61.8675 26.9435 60.9514 30.6741 60.9573V60.9573Z" fill="white"/>
</svg>
