<?xml version="1.0" encoding="UTF-8"?>
<svg width="43px" height="48px" viewBox="0 0 43 48" version="1.1" xmlns="http://www.w3.org/2000/svg" xmlns:xlink="http://www.w3.org/1999/xlink">
    <!-- Generator: Sketch 61 (89581) - https://sketch.com -->
    <title>Group 6</title>
    <desc>Created with Sketch.</desc>
    <defs>
        <polyline id="path-1" points="42.80954 0 42.80954 42.7356184 26.9028961 42.7356184 21.669506 48 16.0272572 42.7356184 0.0740034072 42.7356184 0.0740034072 0"></polyline>
    </defs>
    <g id="Page-1" stroke="none" stroke-width="1" fill="none" fill-rule="evenodd">
        <g id="logo-odc" transform="translate(-118.000000, -46.000000)">
            <g id="Group-6" transform="translate(118.000000, 46.000000)">
                <polygon id="Fill-1" fill="#EC6C12" points="0.07399523 0 0.07399523 42.7356184 16.0272491 42.7356184 21.6694978 48 26.9028879 42.7356184 42.8095319 42.7356184 42.8095319 0"></polygon>
                <g id="Group-5">
                    <mask id="mask-2" fill="white">
                        <use xlink:href="#path-1"></use>
                    </mask>
                    <g id="Clip-4"></g>
                    <path d="M10.1572579,16.9622433 C12.5822801,16.9622433 14.7435066,18.0897118 16.1465458,19.848785 C17.549585,18.0897118 19.7108934,16.9622433 22.1358337,16.9622433 C23.7392136,16.9622433 25.2274589,17.455245 26.4573874,18.2979026 L26.4573874,8.81238296 L29.7932647,5.47658739 L29.7932647,18.297739 C31.0230296,17.455245 32.5111114,16.9622433 34.1146549,16.9622433 C36.7069819,16.9622433 38.9982256,18.250802 40.3835203,20.2221547 L37.9597247,22.6457049 C37.2426685,21.2517424 35.7899939,20.2981206 34.1146549,20.2981206 C31.7278201,20.2981206 29.7932647,22.2329213 29.7932647,24.6195107 C29.7932647,27.0061002 31.7278201,28.9410644 34.1146549,28.9410644 C35.7899939,28.9410644 37.2426685,27.9875244 37.9597247,26.5932348 L40.3835203,29.0167032 C38.9978985,30.9880559 36.7069819,32.2767782 34.1146549,32.2767782 C31.6894692,32.2767782 29.5282426,31.1491462 28.1252034,29.3900729 C26.722246,31.1491462 24.5608559,32.2767782 22.1358337,32.2767782 C17.9068457,32.2767782 14.478648,28.8484988 14.478648,24.6195107 C14.478648,22.2329213 12.5438474,20.2981206 10.1572579,20.2981206 C7.77058671,20.2981206 5.83570426,22.2329213 5.83570426,24.6195107 C5.83570426,27.0061002 7.77058671,28.9410644 10.1572579,28.9410644 C11.7764198,28.9410644 13.1876361,28.0504068 13.9275066,26.7321649 C14.2407741,27.9522807 14.8184913,29.0659298 15.5963857,30.008676 C14.2087196,31.4089349 12.2845492,32.2767782 10.1572579,32.2767782 C5.92818807,32.2767782 2.49999046,28.8484988 2.49999046,24.6195107 C2.49999046,20.3905227 5.92818807,16.9622433 10.1572579,16.9622433 M22.1358337,20.2981206 C24.5225867,20.2981206 26.4573874,22.2329213 26.4573874,24.6195107 C26.4573874,27.0061002 24.5225867,28.9410644 22.1358337,28.9410644 C19.7493261,28.9410644 17.8145254,27.0061002 17.8145254,24.6195107 C17.8145254,22.2329213 19.7493261,20.2981206 22.1358337,20.2981206" id="Fill-3" fill="#FFFFFF" mask="url(#mask-2)"></path>
                </g>
            </g>
        </g>
    </g>
</svg>