<svg width="291" height="29" viewBox="0 0 291 29" fill="none" xmlns="http://www.w3.org/2000/svg">
<path d="M1.28998 8.25999V20.6" stroke="white" stroke-width="2.26" stroke-miterlimit="10"/>
<path d="M75.84 8.25999V20.6" stroke="white" stroke-width="2.26" stroke-miterlimit="10"/>
<path d="M148.48 8.25999V20.6" stroke="white" stroke-width="2.26" stroke-miterlimit="10"/>
<path d="M221.11 8.25999V20.6" stroke="white" stroke-width="2.26" stroke-miterlimit="10"/>
<path d="M289 8.25999V20.6" stroke="white" stroke-width="2.26" stroke-miterlimit="10"/>
<path d="M33.41 10.32H31V20.32L33.24 19.14L34.31 21.14L26.31 25.32L25.24 23.32L28.71 21.51V10.32H25.71V8.05H28.71V1.73H31V8.05H33.43L33.41 10.32ZM46.2 0.399994L47 5H53.76V7.28H47.41L48.95 15.78L51.39 11.64L53.39 12.78L49.6 19.25L50.8 25.7H53.8V28H49L47.93 22.25L44.42 28.25L42.42 27.11L47.29 18.77L45.17 7.27H37.27V11.44H43.65V23.66H38.47V21.39H41.38V13.71H37.27V24.2L34.71 28.28L32.79 27.08L35 23.57V5H44.76L44 0.800003L46.2 0.399994ZM51.2 4.63L48.76 2.23L50.38 0.619995L52.78 3.06L51.2 4.63Z" fill="white"/>
<path d="M106.26 2.07001L104.26 5.3V28.61H102V8.92999L100.39 11.52L98.46 10.32L104.33 0.869995L106.26 2.07001ZM112.65 26.31H115.14V23.53L106.33 27.92L105.33 25.86L115.15 20.94V18.85L106.34 23.27L105.34 21.22L114.46 16.67L112.54 15.35L106.38 18.69L105.3 16.69L111.43 13.38H107.23V7.7L105.81 6.7L108.81 2.59V0.25H111.09V1.8H124.16V5.25L123 6.81H124.73V13.39H116.14L114.78 14.14L117.43 15.91V17.65L124.35 14.2L125.4 16.26L121.64 18.13L125.87 26.24L123.87 27.35L119.6 19.13L117.42 20.24V28.58H112.66L112.65 26.31ZM121.87 4.53999V4.06H110.5L108.5 6.81H120.12L121.87 4.53999ZM109.48 9.09V11.09H114.73V9.09H109.48ZM122.48 11.09V9.09H117V11.09H122.48Z" fill="white"/>
<path d="M170.68 8.92999H175.93V25.8H178.77V28.08H173.65V11.2H170.65L170.68 8.92999ZM175.39 6.56L172.39 3.56L174 2L177 5L175.39 6.56ZM178.49 9.97L181.67 8.08V1.22H195.73V8.87H198.92V11.14H193.46V3.5H184V9.37L179.73 11.9L178.49 9.97ZM179.49 13.1H197.25V19.77L191.56 22.61L198.56 26.09L197.51 28.09L189 23.9L180.54 28.14L179.54 26.14L186.47 22.69L180.78 19.82V16.12H183V18.4L189 21.4L195 18.4V15.4H179.52L179.49 13.1Z" fill="white"/>
<path d="M243.28 9.69H249.35V25.69H253.14V28H247.07V12H243.28V9.69ZM248.75 6.02L245.75 3.02L247.36 1.44L250.36 4.44L248.75 6.02ZM271.56 13.35H263.21V28.52H260.94V13.35H252.53V11.08H260.94V0.279999H263.21V11.08H271.56V13.35Z" fill="white"/>
</svg>
