<svg width="385" height="53" viewBox="0 0 385 53" fill="none" xmlns="http://www.w3.org/2000/svg">
<path fill-rule="evenodd" clip-rule="evenodd" d="M38.85 29.42C40.4976 29.42 42.1081 29.9085 43.4779 30.8238C44.8478 31.7391 45.9155 33.0401 46.546 34.5622C47.1764 36.0843 47.3414 37.7592 47.02 39.3751C46.6986 40.991 45.9052 42.4752 44.7402 43.6402C43.5753 44.8052 42.091 45.5985 40.4751 45.9199C38.8593 46.2413 37.1844 46.0764 35.6623 45.4459C34.1402 44.8154 32.8392 43.7477 31.9239 42.3779C31.0086 41.008 30.52 39.3975 30.52 37.75C30.52 36.6561 30.7355 35.5729 31.1541 34.5622C31.5727 33.5516 32.1863 32.6333 32.9598 31.8598C33.7333 31.0863 34.6516 30.4727 35.6623 30.0541C36.6729 29.6354 37.7561 29.42 38.85 29.42ZM15.77 23C17.9882 22.9974 20.1782 23.4961 22.1765 24.4589C24.1748 25.4217 25.9297 26.8236 27.31 28.56C29.6298 25.6413 32.9687 23.7094 36.6551 23.1528C40.3416 22.5962 44.102 23.4563 47.18 25.56V7.28999L53.6 0.859985V25.57C56.8041 23.3758 60.7442 22.5336 64.5653 23.2263C68.3864 23.919 71.7801 26.0907 74.0101 29.27L69.34 33.94C68.4864 32.2775 67.0985 30.9504 65.3995 30.172C63.7005 29.3936 61.7891 29.2091 59.9725 29.6482C58.156 30.0873 56.54 31.1245 55.3841 32.5931C54.2283 34.0616 53.5999 35.8761 53.5999 37.745C53.5999 39.6138 54.2283 41.4284 55.3841 42.8969C56.54 44.3654 58.156 45.4026 59.9725 45.8418C61.7891 46.2809 63.7005 46.0964 65.3995 45.318C67.0985 44.5396 68.4864 43.2125 69.34 41.55L74.0101 46.22C72.6921 48.097 70.9548 49.641 68.9361 50.7296C66.9173 51.8182 64.6727 52.4213 62.3802 52.4912C60.0878 52.5611 57.8106 52.0958 55.7293 51.1322C53.648 50.1686 51.8199 48.7332 50.39 46.94C48.4844 49.3339 45.8814 51.0759 42.9418 51.9247C40.0021 52.7734 36.8712 52.687 33.9828 51.6773C31.0944 50.6677 28.5915 48.7847 26.8208 46.2894C25.0501 43.794 24.0993 40.8098 24.1 37.75C24.1042 35.7218 23.369 33.7616 22.0323 32.2363C20.6955 30.7109 18.8487 29.725 16.8375 29.463C14.8263 29.2009 12.7886 29.6808 11.1056 30.8127C9.42264 31.9446 8.20984 33.651 7.69415 35.6125C7.17846 37.5741 7.39524 39.6563 8.30392 41.4696C9.2126 43.2828 10.7509 44.7028 12.6309 45.4638C14.511 46.2248 16.6039 46.2746 18.518 45.6039C20.4321 44.9332 22.0361 43.588 23.03 41.82C23.6302 44.133 24.7293 46.2867 26.25 48.13C24.5412 49.8608 22.4311 51.1425 20.1074 51.8611C17.7837 52.5797 15.3184 52.7129 12.9308 52.2489C10.5432 51.7848 8.30729 50.738 6.42189 49.2014C4.53648 47.6647 3.06002 45.686 2.12384 43.4411C1.18765 41.1962 0.820753 38.7548 1.05575 36.3339C1.29075 33.913 2.12037 31.5877 3.47084 29.5648C4.8213 27.5419 6.65076 25.884 8.79651 24.7387C10.9422 23.5934 13.3378 22.9961 15.77 23V23Z" fill="white"/>
<path d="M95.29 31.26V43.6" stroke="white" stroke-width="2.26" stroke-miterlimit="10"/>
<path d="M169.84 31.26V43.6" stroke="white" stroke-width="2.26" stroke-miterlimit="10"/>
<path d="M242.48 31.26V43.6" stroke="white" stroke-width="2.26" stroke-miterlimit="10"/>
<path d="M315.11 31.26V43.6" stroke="white" stroke-width="2.26" stroke-miterlimit="10"/>
<path d="M383 31.26V43.6" stroke="white" stroke-width="2.26" stroke-miterlimit="10"/>
<path d="M127.41 33.32H125V43.32L127.24 42.14L128.31 44.14L120.31 48.32L119.24 46.32L122.71 44.51V33.32H119.71V31.05H122.71V24.73H125V31.05H127.43L127.41 33.32ZM140.2 23.4L141 28H147.76V30.28H141.41L142.95 38.78L145.39 34.64L147.39 35.78L143.6 42.25L144.8 48.7H147.8V51H143L141.93 45.25L138.42 51.25L136.42 50.11L141.29 41.77L139.17 30.27H131.27V34.44H137.65V46.66H132.47V44.39H135.38V36.71H131.27V47.2L128.71 51.28L126.79 50.08L129 46.57V28H138.76L138 23.8L140.2 23.4ZM145.2 27.63L142.76 25.23L144.38 23.62L146.78 26.06L145.2 27.63Z" fill="white"/>
<path d="M200.26 25.07L198.26 28.3V51.61H196V31.93L194.39 34.52L192.46 33.32L198.33 23.87L200.26 25.07ZM206.65 49.31H209.14V46.53L200.33 50.92L199.33 48.86L209.15 43.94V41.85L200.34 46.27L199.34 44.22L208.46 39.67L206.54 38.35L200.38 41.69L199.3 39.69L205.43 36.38H201.23V30.7L199.81 29.7L202.81 25.59V23.25H205.09V24.8H218.16V28.25L217 29.81H218.73V36.39H210.14L208.78 37.14L211.43 38.91V40.65L218.35 37.2L219.4 39.26L215.64 41.13L219.87 49.24L217.87 50.35L213.6 42.13L211.42 43.24V51.58H206.66L206.65 49.31ZM215.87 27.54V27.06H204.5L202.5 29.81H214.12L215.87 27.54ZM203.48 32.09V34.09H208.73V32.09H203.48ZM216.48 34.09V32.09H211V34.09H216.48Z" fill="white"/>
<path d="M264.68 31.93H269.93V48.8H272.77V51.08H267.65V34.2H264.65L264.68 31.93ZM269.39 29.56L266.39 26.56L268 25L271 28L269.39 29.56ZM272.49 32.97L275.67 31.08V24.22H289.73V31.87H292.92V34.14H287.46V26.5H278V32.37L273.73 34.9L272.49 32.97ZM273.49 36.1H291.25V42.77L285.56 45.61L292.56 49.09L291.51 51.09L283 46.9L274.54 51.14L273.54 49.14L280.47 45.69L274.78 42.82V39.12H277V41.4L283 44.4L289 41.4V38.4H273.52L273.49 36.1Z" fill="white"/>
<path d="M337.28 32.69H343.35V48.69H347.14V51H341.07V35H337.28V32.69ZM342.75 29.02L339.75 26.02L341.36 24.44L344.36 27.44L342.75 29.02ZM365.56 36.35H357.21V51.52H354.94V36.35H346.53V34.08H354.94V23.28H357.21V34.08H365.56V36.35Z" fill="white"/>
</svg>
