<svg width="256" height="256" viewBox="0 0 256 256" fill="none" xmlns="http://www.w3.org/2000/svg">
<path d="M256 0H0V256H256V0Z" fill="#EC6C12"/>
<path fill-rule="evenodd" clip-rule="evenodd" d="M132.13 121.442C137.257 121.426 142.274 122.932 146.545 125.769C150.816 128.606 154.149 132.647 156.123 137.379C158.096 142.112 158.621 147.324 157.63 152.355C156.64 157.386 154.179 162.009 150.559 165.641C146.939 169.272 142.322 171.748 137.295 172.754C132.267 173.76 127.054 173.252 122.315 171.293C117.576 169.335 113.525 166.014 110.675 161.752C107.824 157.49 106.303 152.478 106.303 147.35C106.303 140.493 109.021 133.916 113.862 129.059C118.704 124.203 125.272 121.464 132.13 121.442V121.442ZM60.3977 101.607C67.2985 101.586 74.1136 103.135 80.3273 106.137C86.541 109.138 91.9906 113.514 96.2636 118.933C103.473 109.855 113.855 103.847 125.318 102.119C136.781 100.392 148.472 103.073 158.037 109.622V52.9491L178.116 32.7897V109.622C188.115 102.864 200.373 100.315 212.237 102.527C224.101 104.739 234.617 111.535 241.508 121.442L226.692 135.692C224.042 130.542 219.737 126.433 214.469 124.024C209.202 121.616 203.278 121.048 197.648 122.412C192.019 123.775 187.012 126.992 183.431 131.544C179.85 136.096 177.903 141.72 177.903 147.512C177.903 153.304 179.85 158.928 183.431 163.48C187.012 168.032 192.019 171.249 197.648 172.613C203.278 173.976 209.202 173.408 214.469 171C219.737 168.591 224.042 164.482 226.692 159.332L241.266 173.825C237.168 179.659 231.768 184.458 225.493 187.843C219.219 191.227 212.242 193.104 205.117 193.324C197.991 193.544 190.912 192.101 184.44 189.11C177.969 186.119 172.283 181.662 167.834 176.091C161.899 183.521 153.803 188.924 144.665 191.554C135.527 194.184 125.798 193.912 116.822 190.774C107.846 187.637 100.065 181.79 94.5549 174.04C89.0449 166.29 86.0775 157.021 86.0625 147.512C86.0766 141.211 83.7938 135.121 79.6415 130.381C75.4891 125.642 69.7519 122.578 63.5037 121.764C57.2555 120.949 50.9246 122.44 45.6961 125.957C40.4676 129.473 36.6999 134.775 35.0982 140.869C33.4965 146.963 34.1707 153.432 36.9946 159.065C39.8184 164.698 44.5983 169.108 50.4396 171.471C56.2808 173.834 62.783 173.987 68.729 171.902C74.675 169.817 79.6572 165.636 82.7431 160.142C84.5805 167.342 88.0113 174.038 92.7823 179.735C87.4623 185.087 80.9027 189.043 73.6861 191.251C66.4696 193.458 58.8195 193.849 51.4154 192.389C44.0114 190.929 37.0825 187.663 31.2443 182.881C25.4061 178.099 20.8393 171.949 17.9496 164.978C15.0599 158.006 13.9367 150.429 14.6797 142.919C15.4228 135.409 18.0091 128.199 22.209 121.929C26.4089 115.659 32.0923 110.523 38.7544 106.978C45.4165 103.433 52.8511 101.588 60.3977 101.607V101.607Z" fill="white"/>
</svg>
